<svg width="158" height="158" viewBox="0 0 158 158" fill="none" xmlns="http://www.w3.org/2000/svg">
<circle cx="79" cy="79" r="79" fill="#060509"/>
<g filter="url(#filter0_d_207_41)">
<mask id="path-3-outside-1_207_41" maskUnits="userSpaceOnUse" x="50" y="46" width="68" height="72" fill="black">
<rect fill="white" x="50" y="46" width="68" height="72"/>
<path d="M92.0799 116L70.8639 86.336V116H52.0479V48.32H70.8639V77.504L91.8879 48.32H113.584L88.7199 81.152L114.832 116H92.0799Z"/>
</mask>
<path d="M92.0799 116L70.8639 86.336V116H52.0479V48.32H70.8639V77.504L91.8879 48.32H113.584L88.7199 81.152L114.832 116H92.0799Z" fill="#EAC2B2"/>
<path d="M92.0799 116L90.8598 116.873L91.3085 117.5H92.0799V116ZM70.8639 86.336L72.0839 85.4634L69.3639 81.6602V86.336H70.8639ZM70.8639 116V117.5H72.3639V116H70.8639ZM52.0479 116H50.5479V117.5H52.0479V116ZM52.0479 48.32V46.82H50.5479V48.32H52.0479ZM70.8639 48.32H72.3639V46.82H70.8639V48.32ZM70.8639 77.504H69.3639V82.1524L72.0809 78.3808L70.8639 77.504ZM91.8879 48.32V46.82H91.1198L90.6708 47.4432L91.8879 48.32ZM113.584 48.32L114.78 49.2256L116.601 46.82H113.584V48.32ZM88.7199 81.152L87.5241 80.2464L86.8419 81.1472L87.5195 82.0515L88.7199 81.152ZM114.832 116V117.5H117.83L116.032 115.101L114.832 116ZM93.2999 115.127L72.0839 85.4634L69.6438 87.2086L90.8598 116.873L93.2999 115.127ZM69.3639 86.336V116H72.3639V86.336H69.3639ZM70.8639 114.5H52.0479V117.5H70.8639V114.5ZM53.5479 116V48.32H50.5479V116H53.5479ZM52.0479 49.82H70.8639V46.82H52.0479V49.82ZM69.3639 48.32V77.504H72.3639V48.32H69.3639ZM72.0809 78.3808L93.105 49.1968L90.6708 47.4432L69.6468 76.6272L72.0809 78.3808ZM91.8879 49.82H113.584V46.82H91.8879V49.82ZM112.388 47.4144L87.5241 80.2464L89.9157 82.0576L114.78 49.2256L112.388 47.4144ZM87.5195 82.0515L113.631 116.899L116.032 115.101L89.9203 80.2525L87.5195 82.0515ZM114.832 114.5H92.0799V117.5H114.832V114.5Z" fill="#EAC2B2" mask="url(#path-3-outside-1_207_41)"/>
</g>
<g filter="url(#filter1_d_207_41)">
<mask id="path-5-outside-2_207_41" maskUnits="userSpaceOnUse" x="43" y="41" width="69" height="72" fill="black">
<rect fill="white" x="43" y="41" width="69" height="72"/>
<path d="M85.0799 111L63.8639 81.336V111H45.0479V43.32H63.8639V72.504L84.8879 43.32H106.584L81.7199 76.152L107.832 111H85.0799Z"/>
</mask>
<path d="M85.0799 111L63.8639 81.336V111H45.0479V43.32H63.8639V72.504L84.8879 43.32H106.584L81.7199 76.152L107.832 111H85.0799Z" fill="#C8FFFF"/>
<path d="M85.0799 111L83.4531 112.163L84.0514 113H85.0799V111ZM63.8639 81.336L65.4906 80.1725L61.8639 75.1016V81.336H63.8639ZM63.8639 111V113H65.8639V111H63.8639ZM45.0479 111H43.0479V113H45.0479V111ZM45.0479 43.32V41.32H43.0479V43.32H45.0479ZM63.8639 43.32H65.8639V41.32H63.8639V43.32ZM63.8639 72.504H61.8639V78.7019L65.4866 73.673L63.8639 72.504ZM84.8879 43.32V41.32H83.8637L83.2651 42.151L84.8879 43.32ZM106.584 43.32L108.178 44.5274L110.607 41.32H106.584V43.32ZM81.7199 76.152L80.1255 74.9446L79.2159 76.1456L80.1193 77.3513L81.7199 76.152ZM107.832 111V113H111.83L109.432 109.801L107.832 111ZM86.7066 109.837L65.4906 80.1725L62.2371 82.4995L83.4531 112.163L86.7066 109.837ZM61.8639 81.336V111H65.8639V81.336H61.8639ZM63.8639 109H45.0479V113H63.8639V109ZM47.0479 111V43.32H43.0479V111H47.0479ZM45.0479 45.32H63.8639V41.32H45.0479V45.32ZM61.8639 43.32V72.504H65.8639V43.32H61.8639ZM65.4866 73.673L86.5106 44.489L83.2651 42.151L62.2411 71.335L65.4866 73.673ZM84.8879 45.32H106.584V41.32H84.8879V45.32ZM104.989 42.1125L80.1255 74.9446L83.3143 77.3594L108.178 44.5274L104.989 42.1125ZM80.1193 77.3513L106.231 112.199L109.432 109.801L83.3204 74.9527L80.1193 77.3513ZM107.832 109H85.0799V113H107.832V109Z" fill="#C8FFFF" mask="url(#path-5-outside-2_207_41)"/>
</g>
<g filter="url(#filter2_d_207_41)">
<mask id="path-7-outside-3_207_41" maskUnits="userSpaceOnUse" x="47" y="43" width="69" height="72" fill="black">
<rect fill="white" x="47" y="43" width="69" height="72"/>
<path d="M89.0799 113L67.8639 83.336V113H49.0479V45.32H67.8639V74.504L88.8879 45.32H110.584L85.7199 78.152L111.832 113H89.0799Z"/>
</mask>
<path d="M89.0799 113L67.8639 83.336V113H49.0479V45.32H67.8639V74.504L88.8879 45.32H110.584L85.7199 78.152L111.832 113H89.0799Z" fill="white"/>
<path d="M89.0799 113L87.4531 114.163L88.0514 115H89.0799V113ZM67.8639 83.336L69.4906 82.1725L65.8639 77.1016V83.336H67.8639ZM67.8639 113V115H69.8639V113H67.8639ZM49.0479 113H47.0479V115H49.0479V113ZM49.0479 45.32V43.32H47.0479V45.32H49.0479ZM67.8639 45.32H69.8639V43.32H67.8639V45.32ZM67.8639 74.504H65.8639V80.7019L69.4866 75.673L67.8639 74.504ZM88.8879 45.32V43.32H87.8637L87.2651 44.151L88.8879 45.32ZM110.584 45.32L112.178 46.5274L114.607 43.32H110.584V45.32ZM85.7199 78.152L84.1255 76.9446L83.2159 78.1456L84.1193 79.3513L85.7199 78.152ZM111.832 113V115H115.83L113.432 111.801L111.832 113ZM90.7066 111.837L69.4906 82.1725L66.2371 84.4995L87.4531 114.163L90.7066 111.837ZM65.8639 83.336V113H69.8639V83.336H65.8639ZM67.8639 111H49.0479V115H67.8639V111ZM51.0479 113V45.32H47.0479V113H51.0479ZM49.0479 47.32H67.8639V43.32H49.0479V47.32ZM65.8639 45.32V74.504H69.8639V45.32H65.8639ZM69.4866 75.673L90.5106 46.489L87.2651 44.151L66.2411 73.335L69.4866 75.673ZM88.8879 47.32H110.584V43.32H88.8879V47.32ZM108.989 44.1125L84.1255 76.9446L87.3143 79.3594L112.178 46.5274L108.989 44.1125ZM84.1193 79.3513L110.231 114.199L113.432 111.801L87.3204 76.9527L84.1193 79.3513ZM111.832 111H89.0799V115H111.832V111Z" fill="white" mask="url(#path-7-outside-3_207_41)"/>
</g>
<defs>
<filter id="filter0_d_207_41" x="48.0479" y="44.32" width="70.784" height="75.68" filterUnits="userSpaceOnUse" color-interpolation-filters="sRGB">
<feFlood flood-opacity="0" result="BackgroundImageFix"/>
<feColorMatrix in="SourceAlpha" type="matrix" values="0 0 0 0 0 0 0 0 0 0 0 0 0 0 0 0 0 0 127 0" result="hardAlpha"/>
<feOffset/>
<feGaussianBlur stdDeviation="2"/>
<feComposite in2="hardAlpha" operator="out"/>
<feColorMatrix type="matrix" values="0 0 0 0 0.917647 0 0 0 0 0.760784 0 0 0 0 0.698039 0 0 0 1 0"/>
<feBlend mode="normal" in2="BackgroundImageFix" result="effect1_dropShadow_207_41"/>
<feBlend mode="normal" in="SourceGraphic" in2="effect1_dropShadow_207_41" result="shape"/>
</filter>
<filter id="filter1_d_207_41" x="41.0479" y="39.32" width="70.784" height="75.68" filterUnits="userSpaceOnUse" color-interpolation-filters="sRGB">
<feFlood flood-opacity="0" result="BackgroundImageFix"/>
<feColorMatrix in="SourceAlpha" type="matrix" values="0 0 0 0 0 0 0 0 0 0 0 0 0 0 0 0 0 0 127 0" result="hardAlpha"/>
<feOffset/>
<feGaussianBlur stdDeviation="2"/>
<feComposite in2="hardAlpha" operator="out"/>
<feColorMatrix type="matrix" values="0 0 0 0 0.783333 0 0 0 0 1 0 0 0 0 1 0 0 0 1 0"/>
<feBlend mode="normal" in2="BackgroundImageFix" result="effect1_dropShadow_207_41"/>
<feBlend mode="normal" in="SourceGraphic" in2="effect1_dropShadow_207_41" result="shape"/>
</filter>
<filter id="filter2_d_207_41" x="45.0479" y="41.32" width="70.784" height="75.68" filterUnits="userSpaceOnUse" color-interpolation-filters="sRGB">
<feFlood flood-opacity="0" result="BackgroundImageFix"/>
<feColorMatrix in="SourceAlpha" type="matrix" values="0 0 0 0 0 0 0 0 0 0 0 0 0 0 0 0 0 0 127 0" result="hardAlpha"/>
<feOffset/>
<feGaussianBlur stdDeviation="2"/>
<feComposite in2="hardAlpha" operator="out"/>
<feColorMatrix type="matrix" values="0 0 0 0 1 0 0 0 0 1 0 0 0 0 1 0 0 0 1 0"/>
<feBlend mode="normal" in2="BackgroundImageFix" result="effect1_dropShadow_207_41"/>
<feBlend mode="normal" in="SourceGraphic" in2="effect1_dropShadow_207_41" result="shape"/>
</filter>
</defs>
</svg>
