<?xml version="1.0" standalone="no"?>
<!DOCTYPE svg PUBLIC "-//W3C//DTD SVG 20010904//EN"
 "http://www.w3.org/TR/2001/REC-SVG-20010904/DTD/svg10.dtd">
<svg version="1.0" xmlns="http://www.w3.org/2000/svg"
 width="700.000000pt" height="700.000000pt" viewBox="0 0 700.000000 700.000000"
 preserveAspectRatio="xMidYMid meet">
<metadata>
Created by potrace 1.11, written by Peter Selinger 2001-2013
</metadata>
<g transform="translate(0.000000,700.000000) scale(0.100000,-0.100000)"
fill="#000000" stroke="none">
<path d="M580 4665 l0 -295 295 0 295 0 0 295 0 295 -295 0 -295 0 0 -295z"/>
<path d="M1452 4668 l3 -293 295 0 295 0 3 293 2 292 -300 0 -300 0 2 -292z"/>
<path d="M2330 4665 l0 -295 295 0 295 0 0 295 0 295 -295 0 -295 0 0 -295z"/>
<path d="M3202 4668 l3 -293 295 0 295 0 3 293 2 292 -300 0 -300 0 2 -292z"/>
<path d="M4080 4665 l0 -295 295 0 295 0 0 295 0 295 -295 0 -295 0 0 -295z"/>
<path d="M4952 4668 l3 -293 733 -3 732 -2 0 295 0 295 -735 0 -735 0 2 -292z"/>
<path d="M580 3795 l0 -295 440 0 440 0 0 295 0 295 -440 0 -440 0 0 -295z"/>
<path d="M1750 3795 l0 -295 295 0 295 0 0 295 0 295 -295 0 -295 0 0 -295z"/>
<path d="M2620 3795 l0 -295 440 0 440 0 0 295 0 295 -440 0 -440 0 0 -295z"/>
<path d="M3790 3795 l0 -295 295 0 295 0 0 295 0 295 -295 0 -295 0 0 -295z"/>
<path d="M4660 3795 l0 -295 295 0 295 0 0 295 0 295 -295 0 -295 0 0 -295z"/>
<path d="M5540 3795 l0 -295 440 0 440 0 0 295 0 295 -440 0 -440 0 0 -295z"/>
<path d="M580 2915 l0 -295 585 0 585 0 0 295 0 295 -585 0 -585 0 0 -295z"/>
<path d="M2040 2915 l0 -295 440 0 440 0 0 295 0 295 -440 0 -440 0 0 -295z"/>
<path d="M3202 2918 l3 -293 295 0 295 0 3 293 2 292 -300 0 -300 0 2 -292z"/>
<path d="M4080 2915 l0 -295 440 0 440 0 0 295 0 295 -440 0 -440 0 0 -295z"/>
<path d="M5250 2915 l0 -295 585 0 585 0 0 295 0 295 -585 0 -585 0 0 -295z"/>
<path d="M1750 2045 l0 -295 1750 0 1750 0 0 295 0 295 -1750 0 -1750 0 0
-295z"/>
</g>
</svg>
