<?xml version="1.0" standalone="no"?>
<!DOCTYPE svg PUBLIC "-//W3C//DTD SVG 20010904//EN"
 "http://www.w3.org/TR/2001/REC-SVG-20010904/DTD/svg10.dtd">
<svg version="1.0" xmlns="http://www.w3.org/2000/svg"
 width="700.000000pt" height="700.000000pt" viewBox="0 0 700.000000 700.000000"
 preserveAspectRatio="xMidYMid meet">
<metadata>
Created by potrace 1.11, written by Peter Selinger 2001-2013
</metadata>
<g transform="translate(0.000000,700.000000) scale(0.100000,-0.100000)"
fill="#000000" stroke="none">
<path d="M1635 6404 c-169 -31 -334 -158 -408 -314 -62 -130 -60 -68 -61
-1390 -1 -663 2 -1233 6 -1266 28 -244 205 -443 446 -500 60 -15 250 -16 1872
-17 993 0 1823 3 1845 7 134 22 236 75 332 172 40 41 73 80 73 88 0 8 4 16 8
18 14 6 52 97 69 166 14 60 16 201 16 1302 0 1123 -1 1241 -17 1300 -19 74
-65 174 -97 211 -11 13 -29 33 -38 44 -54 66 -165 136 -271 171 -52 17 -155
18 -1880 19 -1451 1 -1839 -1 -1895 -11z m3615 -1736 l0 -1168 -1750 0 -1750
0 0 1164 c0 767 3 1165 10 1168 6 2 793 3 1750 3 l1740 0 0 -1167z"/>
<path d="M1042 2610 c-222 -47 -388 -214 -449 -451 -3 -13 -7 -254 -8 -535 -2
-572 0 -589 64 -719 83 -168 248 -288 429 -313 33 -5 1139 -8 2458 -7 2264 1
2402 2 2454 19 210 67 351 211 406 413 17 62 19 111 19 593 -1 477 -2 530 -19
585 -38 128 -119 245 -219 318 -45 34 -155 86 -194 93 -15 3 -37 8 -48 11 -11
4 -1099 7 -2418 8 -2162 0 -2406 -1 -2475 -15z m4785 -574 c10 -9 9 -857 0
-863 -6 -3 -3414 -7 -3483 -4 -16 1 -13 859 3 869 14 9 3472 7 3480 -2z"/>
<path d="M2637 1818 c-9 -5 -12 -70 -12 -217 0 -179 2 -210 15 -213 13 -3
1122 -2 1143 1 9 1 9 431 0 432 -43 5 -1138 2 -1146 -3z"/>
<path d="M4379 1820 c-1 -3 -2 -101 -3 -217 -1 -139 2 -213 9 -214 5 -1 268
-2 583 -3 l572 -1 0 45 c2 287 1 382 -4 387 -7 8 -1155 10 -1157 3z"/>
</g>
</svg>
