<?xml version="1.0" standalone="no"?>
<!DOCTYPE svg PUBLIC "-//W3C//DTD SVG 20010904//EN"
 "http://www.w3.org/TR/2001/REC-SVG-20010904/DTD/svg10.dtd">
<svg version="1.0" xmlns="http://www.w3.org/2000/svg"
 width="876.000000pt" height="876.000000pt" viewBox="0 0 876.000000 876.000000"
 preserveAspectRatio="xMidYMid meet">
<metadata>
Created by potrace 1.11, written by Peter Selinger 2001-2013
</metadata>
<g transform="translate(0.000000,876.000000) scale(0.100000,-0.100000)"
fill="#000000" stroke="none">
<path d="M6788 8755 c-2 -1 -37 -5 -78 -8 -41 -4 -100 -11 -130 -17 -30 -6
-65 -13 -78 -16 -56 -11 -214 -70 -287 -107 -205 -103 -383 -259 -512 -451
-130 -194 -213 -420 -247 -675 -15 -120 -18 -276 -19 -1043 0 -391 -3 -555
-11 -551 -11 7 -14 10 -136 113 -47 40 -528 514 -1070 1054 -542 540 -1014
1005 -1050 1033 -92 71 -221 154 -316 201 -75 38 -256 104 -314 116 -14 2 -47
9 -75 15 -69 13 -157 21 -245 22 -514 6 -1027 -321 -1271 -810 -259 -522 -158
-1133 266 -1610 46 -51 455 -459 1049 -1045 l536 -529 -489 -491 c-1119 -1123
-1467 -1483 -1551 -1606 -13 -19 -27 -37 -30 -40 -10 -9 -77 -124 -105 -179
-51 -102 -120 -298 -130 -371 -1 -8 -5 -31 -8 -50 -34 -192 -22 -420 34 -620
56 -204 183 -419 343 -584 237 -243 539 -393 871 -431 67 -8 262 -8 328 0 274
34 535 145 726 308 209 178 1386 1360 1516 1522 175 218 301 482 356 745 28
134 34 195 34 360 0 235 -22 375 -95 591 -82 245 -229 497 -404 689 -82 89
-679 690 -1435 1444 -882 879 -910 907 -950 962 -103 140 -138 316 -91 465 50
164 205 314 386 375 68 23 90 26 159 21 88 -5 162 -30 231 -78 60 -41 370
-345 1379 -1354 1111 -1111 1460 -1467 1496 -1530 27 -47 48 -120 65 -225 4
-25 8 -740 9 -1590 0 -850 4 -1558 8 -1575 4 -16 12 -55 18 -85 6 -30 12 -65
15 -77 11 -53 69 -205 111 -288 79 -158 213 -323 348 -430 28 -22 52 -42 55
-45 15 -16 146 -92 220 -128 129 -61 290 -111 415 -127 28 -4 61 -9 75 -11 29
-5 282 -5 320 0 206 27 372 78 525 161 121 66 136 76 255 176 255 216 433 570
466 926 3 37 8 86 10 108 5 57 6 1126 1 1150 -3 11 -8 47 -11 80 -4 33 -11 76
-16 95 -5 19 -11 48 -14 64 -5 30 -52 178 -66 211 -5 11 -22 50 -38 86 -70
157 -197 341 -325 469 -57 57 -627 617 -986 968 -69 68 -213 210 -320 315
l-195 192 2 840 c2 970 8 1523 17 1580 30 194 185 362 380 412 51 13 214 12
275 -3 150 -34 286 -128 340 -235 58 -111 59 -126 60 -603 0 -470 2 -493 51
-592 13 -27 49 -73 79 -104 170 -173 449 -176 620 -8 30 30 67 77 82 104 55
103 56 112 53 600 -1 247 -5 459 -8 471 -3 11 -8 43 -12 70 -35 252 -161 542
-315 723 -25 30 -55 66 -66 78 -32 39 -165 146 -239 194 -212 134 -455 204
-737 212 -59 2 -109 2 -110 1z m-3186 -5174 c257 -344 280 -708 65 -1025 -112
-166 -808 -883 -1366 -1408 -95 -89 -204 -161 -259 -173 -9 -2 -36 -8 -59 -13
-52 -12 -170 -8 -220 8 -149 46 -285 165 -361 315 -89 177 -73 348 48 500 65
81 997 1004 1576 1561 40 39 153 148 250 243 l176 173 47 -53 c25 -28 72 -86
103 -128z m2798 22 c158 -121 389 -339 490 -463 140 -170 250 -354 327 -545
22 -54 73 -205 79 -230 1 -5 7 -28 12 -50 24 -90 57 -274 67 -380 15 -167 19
-239 18 -400 0 -205 -10 -269 -58 -370 -95 -200 -300 -291 -584 -260 -204 22
-369 164 -396 340 -25 167 -31 661 -25 2022 l2 382 26 -17 c15 -9 34 -22 42
-29z"/>
<path d="M7798 5464 c-2 -1 -20 -5 -40 -8 -211 -33 -368 -225 -369 -449 0
-179 97 -333 257 -409 74 -35 89 -38 181 -43 198 -9 380 114 448 305 36 100
29 242 -18 344 -50 108 -178 214 -297 246 -39 11 -156 21 -162 14z"/>
</g>
</svg>
