<?xml version="1.0" standalone="no"?>
<!DOCTYPE svg PUBLIC "-//W3C//DTD SVG 20010904//EN"
 "http://www.w3.org/TR/2001/REC-SVG-20010904/DTD/svg10.dtd">
<svg version="1.0" xmlns="http://www.w3.org/2000/svg"
 width="1279.000000pt" height="1279.000000pt" viewBox="0 0 1279.000000 1279.000000"
 preserveAspectRatio="xMidYMid meet">
<metadata>
Created by potrace 1.11, written by Peter Selinger 2001-2013
</metadata>
<g transform="translate(0.000000,1279.000000) scale(0.100000,-0.100000)"
fill="#000000" stroke="none">
<path d="M6651 11494 c4 -14 -24 -67 -47 -89 -12 -11 -19 -26 -17 -32 3 -7 -2
-16 -11 -19 -9 -3 -13 -10 -10 -15 3 -5 -2 -12 -10 -15 -9 -3 -13 -10 -10 -15
3 -5 1 -9 -4 -9 -5 0 -17 -16 -26 -35 -10 -20 -21 -33 -26 -30 -6 3 -7 -1 -4
-9 4 -9 -1 -18 -10 -22 -9 -3 -14 -10 -11 -14 3 -5 -3 -13 -12 -19 -10 -6 -14
-11 -9 -11 6 0 1 -7 -10 -16 -10 -8 -13 -12 -6 -9 11 6 11 3 1 -13 -7 -12 -16
-19 -20 -16 -10 6 -20 -26 -12 -39 3 -7 3 -9 -2 -5 -10 9 -50 -51 -47 -69 2
-8 -3 -10 -14 -6 -12 4 -15 3 -10 -5 4 -7 2 -12 -4 -12 -6 0 -9 -4 -5 -9 3 -6
-3 -14 -12 -20 -10 -6 -13 -11 -8 -11 6 0 5 -4 -2 -8 -6 -4 -13 -14 -15 -22
-5 -22 -22 -39 -33 -32 -5 3 -7 2 -3 -3 8 -9 -22 -65 -35 -65 -4 0 -6 -4 -2
-9 3 -6 -3 -14 -12 -20 -10 -5 -17 -13 -16 -18 0 -4 -3 -7 -8 -6 -4 2 -5 -5
-2 -14 5 -12 3 -14 -7 -8 -9 5 -11 4 -6 -3 4 -6 -2 -20 -13 -31 -11 -11 -17
-22 -14 -25 4 -3 0 -6 -7 -6 -7 0 -11 -3 -7 -6 3 -4 1 -12 -6 -20 -29 -33 -37
-44 -37 -54 0 -5 -5 -10 -11 -10 -5 0 -7 -4 -4 -10 3 -5 1 -10 -5 -10 -6 0 -8
-4 -5 -10 3 -5 -1 -10 -9 -10 -9 0 -13 -6 -10 -14 3 -7 -2 -16 -11 -20 -9 -3
-13 -10 -10 -16 3 -5 2 -10 -3 -10 -5 0 -15 -11 -22 -25 -7 -13 -16 -22 -20
-20 -4 3 -7 -5 -6 -18 1 -13 -4 -21 -12 -19 -8 1 -11 -2 -7 -8 3 -5 1 -10 -5
-10 -6 0 -8 -5 -5 -10 3 -6 -1 -13 -9 -16 -9 -3 -13 -10 -10 -15 3 -5 0 -9 -5
-9 -6 0 -11 -5 -11 -11 0 -6 -7 -17 -15 -26 -8 -8 -12 -19 -9 -25 4 -7 2 -8
-4 -4 -7 4 -14 -3 -18 -19 -3 -13 -10 -23 -14 -20 -11 7 -22 -24 -13 -37 4 -7
1 -8 -6 -4 -8 5 -14 0 -18 -13 -3 -12 -9 -21 -14 -21 -5 0 -9 -7 -9 -15 0 -8
-5 -15 -11 -15 -5 0 -8 -4 -5 -9 3 -5 -1 -14 -9 -21 -8 -7 -15 -18 -15 -24 0
-6 -9 -17 -20 -24 -11 -7 -20 -19 -20 -27 0 -8 -5 -15 -11 -15 -5 0 -8 -4 -4
-9 3 -6 -3 -14 -12 -20 -10 -5 -15 -13 -11 -17 4 -4 -2 -15 -14 -25 -11 -11
-17 -19 -12 -19 5 0 -2 -10 -16 -21 -14 -11 -18 -18 -10 -14 10 4 9 2 -2 -8
-10 -8 -15 -17 -11 -20 3 -4 1 -7 -6 -7 -7 0 -10 -4 -7 -8 3 -5 -4 -14 -14
-22 -10 -8 -17 -17 -14 -22 3 -4 0 -8 -7 -8 -7 0 -9 -3 -6 -6 4 -4 -1 -14 -11
-23 -9 -9 -18 -23 -20 -31 -2 -8 -11 -22 -21 -30 -10 -9 -16 -21 -13 -28 2 -6
-1 -12 -6 -12 -6 0 -14 -9 -17 -20 -4 -11 -11 -18 -16 -15 -8 6 -13 -9 -6 -19
1 -2 -6 -13 -16 -23 -9 -11 -14 -22 -11 -25 3 -4 -4 -9 -15 -13 -12 -3 -19
-10 -16 -15 3 -5 0 -12 -7 -17 -7 -4 -13 -15 -13 -23 0 -8 -6 -14 -13 -12 -8
1 -11 -2 -7 -8 3 -6 -1 -17 -9 -26 -9 -8 -16 -22 -16 -30 0 -8 -4 -14 -10 -14
-5 0 -10 -7 -10 -16 0 -8 -4 -12 -10 -9 -9 5 -15 -15 -11 -38 0 -4 -2 -6 -6
-5 -5 2 -9 -1 -11 -7 -2 -5 -10 -14 -18 -18 -8 -5 -12 -12 -9 -17 3 -4 -2 -11
-11 -14 -8 -3 -12 -10 -9 -16 3 -5 2 -10 -2 -10 -5 0 -17 -16 -27 -35 -11 -19
-23 -35 -28 -35 -5 0 -6 -4 -3 -10 3 -5 1 -10 -5 -10 -7 0 -10 -6 -7 -13 3 -8
-8 -25 -24 -38 -16 -13 -29 -32 -29 -41 0 -10 -4 -18 -10 -18 -5 0 -10 -7 -10
-16 0 -8 -4 -12 -10 -9 -9 6 -14 -8 -11 -27 0 -5 -4 -8 -10 -8 -5 0 -8 -4 -5
-9 3 -5 -1 -12 -10 -15 -8 -3 -13 -10 -10 -15 3 -5 -1 -11 -9 -15 -8 -3 -15
-12 -15 -20 0 -7 -7 -16 -15 -20 -8 -3 -15 -12 -15 -20 0 -21 -76 -127 -84
-119 -4 4 -4 -1 0 -11 6 -15 4 -17 -6 -11 -9 5 -11 4 -6 -3 4 -6 -1 -20 -11
-31 -28 -31 -43 -50 -46 -58 -1 -5 -6 -7 -12 -5 -5 2 -7 0 -2 -4 4 -4 0 -18
-8 -31 -9 -13 -12 -23 -8 -23 5 0 0 -5 -9 -11 -10 -5 -18 -17 -18 -24 0 -8 -5
-15 -12 -15 -6 0 -9 -3 -5 -6 3 -3 -3 -14 -14 -25 -11 -11 -17 -24 -14 -29 6
-9 -8 -14 -27 -11 -4 0 -4 -6 -1 -15 4 -10 -1 -20 -11 -26 -9 -5 -14 -13 -11
-19 4 -5 -1 -12 -9 -15 -9 -3 -16 -12 -16 -19 0 -7 -4 -15 -9 -17 -5 -1 -11
-10 -13 -18 -2 -8 -11 -22 -20 -31 -10 -9 -15 -19 -11 -23 3 -3 1 -6 -5 -6 -6
0 -14 -10 -18 -22 -3 -12 -16 -30 -28 -41 -11 -10 -14 -15 -6 -11 8 4 5 -3 -7
-15 -13 -12 -23 -28 -23 -36 0 -8 -4 -15 -10 -15 -5 0 -10 -7 -10 -16 0 -8 -4
-13 -9 -10 -5 3 -14 -8 -20 -24 -5 -17 -17 -38 -26 -46 -8 -9 -12 -21 -8 -27
4 -7 0 -8 -11 -4 -9 4 -15 3 -11 -2 3 -5 -1 -16 -9 -24 -8 -8 -12 -17 -9 -21
4 -3 1 -6 -6 -6 -7 0 -9 -5 -6 -10 3 -6 -1 -13 -9 -16 -9 -3 -16 -13 -16 -20
0 -8 -7 -17 -15 -20 -8 -4 -15 -10 -15 -16 0 -5 5 -6 12 -2 7 4 8 3 4 -4 -4
-7 -14 -12 -23 -12 -9 0 -13 -3 -10 -6 10 -10 -13 -45 -24 -39 -5 4 -8 3 -7
-2 4 -14 -13 -53 -23 -53 -5 0 -13 -8 -16 -17 -9 -24 -55 -96 -68 -105 -7 -5
-7 -8 0 -8 6 0 3 -6 -6 -13 -9 -7 -19 -22 -23 -35 -4 -12 -12 -20 -17 -16 -5
3 -9 2 -7 -3 2 -11 -35 -73 -45 -73 -5 0 -6 -4 -3 -8 3 -5 -6 -21 -20 -37 -23
-27 -28 -39 -25 -58 1 -5 -2 -6 -6 -4 -9 6 -34 -18 -27 -25 4 -4 -29 -51 -66
-95 -8 -9 -7 -13 2 -13 7 -1 3 -6 -10 -13 -12 -7 -19 -16 -16 -20 4 -4 2 -7
-5 -7 -7 0 -10 -4 -7 -9 3 -5 -1 -14 -9 -21 -8 -7 -12 -17 -8 -23 3 -6 1 -7
-5 -3 -7 4 -12 2 -12 -4 0 -6 -4 -9 -9 -5 -6 3 -8 -3 -6 -14 2 -11 -3 -22 -11
-25 -8 -3 -14 -12 -14 -21 0 -8 -4 -15 -10 -15 -5 0 -10 -7 -10 -15 0 -9 -7
-18 -15 -21 -8 -4 -12 -10 -9 -15 3 -5 0 -9 -6 -9 -6 0 -8 -4 -5 -10 3 -5 2
-10 -2 -10 -5 0 -17 -16 -27 -35 -10 -19 -23 -32 -27 -29 -5 3 -6 -3 -2 -12 4
-11 2 -15 -4 -11 -12 8 -26 -20 -17 -34 3 -5 -2 -9 -11 -9 -9 0 -14 -4 -11 -9
3 -5 -7 -21 -22 -37 -15 -15 -20 -24 -12 -20 8 4 3 -4 -12 -17 -15 -14 -24
-27 -21 -30 3 -4 -1 -13 -8 -21 -31 -35 -37 -44 -32 -50 4 -3 1 -6 -5 -6 -7 0
-12 -5 -12 -11 0 -6 -7 -17 -15 -26 -8 -8 -12 -19 -9 -25 4 -6 2 -8 -3 -5 -10
7 -28 -20 -25 -35 1 -5 -3 -8 -8 -8 -6 0 -18 -18 -27 -40 -10 -22 -21 -40 -24
-40 -7 0 -50 -68 -46 -73 1 -1 -8 -13 -20 -27 -13 -13 -28 -36 -35 -51 -7 -15
-16 -25 -20 -23 -4 3 -8 -2 -8 -11 0 -9 -6 -23 -12 -30 -31 -34 -36 -43 -31
-49 4 -3 0 -6 -7 -6 -7 0 -11 -3 -7 -6 8 -8 -25 -44 -35 -38 -4 3 -5 -2 -2
-10 3 -9 1 -16 -5 -16 -6 0 -10 -3 -9 -7 3 -15 -14 -43 -23 -37 -5 3 -6 -3 -2
-12 4 -12 3 -15 -5 -10 -8 4 -12 0 -12 -11 -1 -22 -24 -55 -33 -46 -4 3 -7 -4
-7 -16 0 -12 -7 -24 -16 -28 -8 -3 -13 -12 -10 -20 3 -8 2 -12 -3 -9 -9 6 -20
-11 -17 -27 0 -5 -7 -13 -17 -18 -9 -6 -15 -14 -12 -19 3 -4 -2 -11 -11 -14
-9 -4 -14 -13 -10 -21 3 -9 0 -15 -9 -15 -7 0 -17 -5 -21 -12 -4 -7 -3 -8 4
-4 8 5 10 2 6 -8 -3 -9 -10 -14 -14 -11 -4 3 -11 -7 -14 -20 -4 -16 -11 -23
-18 -19 -7 5 -9 2 -5 -9 3 -9 -1 -18 -10 -21 -9 -4 -13 -9 -10 -12 3 -3 -2
-14 -11 -24 -38 -41 -42 -49 -42 -71 0 -6 -7 -9 -14 -6 -10 4 -13 1 -9 -9 3
-8 0 -20 -6 -28 -6 -7 -8 -16 -4 -20 4 -4 -1 -4 -12 0 -11 4 -17 4 -13 -1 4
-4 0 -14 -10 -22 -9 -8 -12 -12 -5 -9 8 5 8 0 0 -19 -7 -14 -18 -25 -25 -25
-7 0 -11 -4 -7 -9 3 -6 -3 -14 -12 -20 -10 -6 -14 -11 -10 -11 5 0 1 -7 -7
-16 -9 -8 -14 -19 -11 -24 3 -5 -4 -11 -14 -15 -11 -3 -18 -12 -15 -19 3 -8
-5 -21 -18 -30 -12 -9 -19 -16 -15 -16 4 0 1 -10 -8 -23 -8 -13 -12 -27 -8
-31 4 -4 -1 -4 -11 0 -16 6 -18 4 -14 -14 4 -12 2 -20 -3 -16 -5 3 -9 0 -9 -6
0 -6 -5 -8 -12 -4 -7 5 -8 3 -3 -6 5 -8 1 -18 -10 -27 -11 -7 -15 -13 -10 -13
5 0 0 -7 -11 -16 -10 -8 -13 -13 -7 -9 19 9 16 1 -12 -29 -14 -15 -22 -32 -19
-38 4 -6 2 -8 -3 -5 -6 4 -17 -1 -24 -10 -12 -14 -12 -16 0 -8 7 4 3 -6 -9
-23 -13 -17 -28 -28 -34 -25 -6 4 -5 -1 3 -10 8 -10 9 -17 3 -17 -6 0 -19 -16
-28 -35 -9 -19 -19 -33 -23 -31 -4 3 -13 -10 -21 -27 -7 -18 -19 -37 -24 -44
-30 -34 -34 -41 -29 -47 3 -3 -2 -8 -11 -12 -9 -3 -13 -10 -10 -15 3 -5 -2
-12 -10 -15 -9 -3 -13 -10 -10 -15 3 -5 0 -9 -7 -9 -7 0 -10 -3 -6 -6 3 -4 -4
-15 -16 -26 -12 -11 -15 -17 -7 -13 10 4 9 2 -2 -8 -10 -8 -15 -17 -11 -20 3
-4 1 -7 -5 -7 -7 0 -12 -7 -12 -15 0 -8 -7 -15 -16 -15 -8 0 -12 -5 -9 -11 4
-6 10 -8 13 -5 3 3 11 1 19 -5 7 -6 13 -8 13 -3 0 10 72 10 89 0 6 -4 11 -4
11 1 0 9 158 8 167 -1 3 -3 14 -1 24 5 13 7 19 6 19 -1 0 -6 5 -8 10 -5 13 8
179 9 187 2 3 -3 15 -2 28 3 14 5 26 5 34 -3 6 -6 11 -7 11 -1 0 9 157 10 167
0 3 -3 14 -1 24 5 13 7 19 6 19 -1 0 -6 5 -8 10 -5 14 9 176 9 189 1 6 -4 11
-2 11 4 0 7 6 8 17 1 9 -5 26 -6 37 -2 12 3 33 6 48 5 15 0 25 3 22 7 -3 5 0
9 6 9 6 0 8 5 5 10 -3 6 -1 10 4 10 6 0 11 7 11 15 0 8 4 15 10 15 5 0 12 11
16 24 3 14 12 27 21 30 8 3 12 10 9 15 -3 5 1 12 10 15 8 3 12 10 9 16 -3 5
-3 10 2 10 4 0 14 14 21 30 8 17 17 28 22 25 5 -3 16 13 26 35 10 22 22 40 27
40 4 0 6 4 3 9 -3 5 1 12 10 15 9 3 14 12 11 19 -3 8 4 19 14 25 10 7 19 19
19 27 0 8 4 15 8 15 5 0 17 18 28 39 10 22 22 37 26 35 7 -5 12 19 9 39 -1 5
3 6 9 2 5 -3 10 -1 10 5 0 6 4 9 9 6 5 -3 8 2 7 12 0 9 4 16 11 15 7 -2 10 3
7 11 -3 7 2 16 11 20 9 3 14 10 11 15 -4 5 2 17 11 27 10 10 18 20 18 23 0 15
33 50 40 43 5 -4 5 -2 1 5 -3 6 -1 15 5 18 5 4 8 13 5 21 -3 8 -2 13 2 11 4
-1 9 3 11 8 2 6 12 16 23 23 10 7 16 17 13 21 -2 5 6 20 19 34 13 14 21 28 18
31 -3 3 0 6 7 6 7 0 10 4 7 9 -3 5 1 12 10 15 8 3 13 10 10 15 -3 5 1 11 9 15
8 3 15 12 15 21 0 8 5 15 10 15 6 0 10 7 10 15 0 9 7 18 15 21 8 4 12 10 9 15
-3 5 2 12 10 15 9 3 13 10 10 15 -3 5 0 9 6 9 6 0 8 5 5 10 -3 6 -2 10 4 10 6
0 18 16 27 35 9 19 20 32 25 29 5 -3 9 -2 8 3 -3 13 14 47 27 56 7 4 11 14 7
23 -3 9 0 14 8 12 8 -2 13 4 13 15 -1 9 5 17 14 17 8 0 12 3 9 7 -4 3 1 12 11
20 11 10 12 12 2 8 -10 -4 -9 -2 3 8 9 8 17 17 17 21 0 7 7 17 40 55 8 10 16
24 18 32 2 8 8 16 13 17 5 2 7 8 3 13 -3 5 2 9 11 9 9 0 14 4 10 9 -3 5 1 16
9 24 8 8 12 17 9 21 -3 3 2 8 11 12 9 3 14 10 11 14 -3 4 2 11 11 14 8 3 12
10 9 16 -3 6 0 13 8 16 8 3 17 15 20 26 3 11 10 17 16 13 7 -3 8 0 5 9 -3 9
-1 16 6 16 6 0 9 4 6 9 -3 5 1 12 10 15 8 3 12 10 9 16 -3 5 -1 10 4 10 6 0
11 6 11 14 0 8 7 17 16 20 8 3 13 10 10 14 -3 5 6 20 19 32 14 13 25 29 25 37
0 7 5 13 11 13 5 0 8 4 4 9 -3 6 3 14 12 20 10 5 17 13 17 18 -3 17 9 33 20
26 6 -3 8 -3 4 2 -10 11 11 47 23 40 5 -4 9 -3 8 2 -3 13 14 47 30 61 13 11
13 12 1 7 -8 -4 -5 2 7 13 12 11 19 22 16 26 -4 3 0 6 7 6 7 0 11 3 7 6 -3 4
-1 12 6 20 30 34 37 44 30 44 -4 0 -3 4 2 8 21 15 50 56 35 48 -8 -4 -5 1 7
12 12 11 19 22 16 26 -4 3 -2 6 4 6 6 0 13 8 17 18 8 26 29 55 49 70 9 7 17
18 17 24 0 6 6 19 14 27 8 9 16 23 18 31 5 21 22 39 32 32 5 -3 6 2 3 12 -4
10 -1 19 8 22 8 4 15 12 15 19 0 7 7 16 16 19 9 3 14 13 11 20 -3 8 1 17 10
20 8 4 13 13 10 21 -4 9 -1 12 9 8 9 -3 14 2 14 16 0 12 5 21 10 21 6 0 10 7
10 15 0 8 3 15 8 15 4 0 13 14 20 30 8 17 18 28 23 24 5 -3 9 4 9 15 0 12 5
21 11 21 5 0 8 4 5 9 -3 5 1 12 10 15 8 3 12 10 9 16 -3 5 1 10 9 10 10 0 13
6 9 17 -4 11 -3 14 5 9 7 -4 12 -1 12 8 0 8 7 22 16 30 8 9 12 21 8 27 -4 7
-3 10 2 7 11 -6 45 28 36 37 -4 3 -2 9 3 13 20 14 64 80 58 86 -4 3 0 6 7 6 7
0 11 3 7 6 -8 9 16 33 27 26 5 -3 7 2 3 11 -3 10 -2 17 4 17 6 0 8 4 5 9 -3 5
1 12 10 15 9 4 14 9 11 12 -3 3 6 17 20 30 14 13 23 24 19 24 -4 0 1 13 10 29
10 17 21 28 26 25 4 -3 8 2 8 10 0 9 6 16 13 16 9 0 9 2 -1 9 -11 7 -10 9 3
15 9 3 13 10 10 16 -3 5 0 10 8 10 8 0 17 8 21 18 11 32 43 81 50 75 3 -3 6 3
6 15 0 11 8 26 18 31 9 6 13 11 9 11 -4 0 1 10 12 22 11 11 18 25 15 30 -3 4
2 8 11 8 9 0 13 5 10 10 -3 6 -1 10 5 10 6 0 9 4 6 9 -3 5 1 12 10 15 9 4 14
9 11 12 -3 3 1 13 9 22 8 10 13 20 12 23 -2 3 10 17 26 32 16 15 24 27 17 27
-9 0 -8 4 1 14 7 8 16 12 21 9 4 -2 7 -1 6 4 -4 21 2 34 13 27 6 -4 8 -3 4 4
-3 6 1 18 10 26 8 9 12 16 9 16 -4 0 3 9 16 21 13 11 17 18 9 14 -8 -4 -4 3
10 15 14 12 18 19 10 15 -8 -4 -6 2 6 12 11 10 20 21 20 25 -1 4 7 17 17 28 9
11 17 25 17 30 0 6 5 10 11 10 5 0 8 4 5 9 -4 5 -3 11 1 13 10 4 53 65 53 73
0 4 7 13 15 22 8 8 13 19 9 24 -3 5 0 8 8 7 8 -2 12 4 10 16 -2 10 1 15 6 12
5 -3 15 7 23 22 8 15 20 33 27 40 12 13 16 28 12 47 -1 5 1 7 5 3 4 -4 13 -2
19 5 11 11 16 21 27 52 2 6 14 20 27 32 13 12 21 27 17 32 -5 10 6 15 26 13 4
-1 5 8 2 18 -3 11 0 20 6 20 6 0 11 6 11 14 0 8 7 17 16 20 8 3 12 10 9 16 -3
6 1 13 9 16 9 3 14 10 11 15 -3 4 4 13 15 19 11 6 20 19 20 29 0 11 7 22 16
25 8 3 13 10 10 14 -3 5 5 20 17 33 12 13 21 27 19 31 -1 5 2 8 8 8 5 0 10 7
10 15 0 8 5 15 11 15 5 0 8 4 5 9 -3 5 1 11 9 15 8 3 15 12 15 21 0 8 5 15 10
15 6 0 10 6 10 13 0 7 10 24 22 37 12 13 23 31 25 39 1 9 9 21 17 27 9 6 16
14 16 18 0 16 47 75 55 68 4 -4 4 4 0 17 -4 13 -3 21 2 18 5 -3 17 10 28 29
10 19 22 34 27 34 4 0 8 9 8 20 0 10 9 24 21 30 11 7 19 17 16 23 -2 7 1 17 8
24 14 13 28 5 55 -31 13 -18 13 -19 0 -12 -8 4 -7 1 3 -7 10 -9 18 -18 18 -21
-3 -21 0 -26 11 -20 8 5 9 2 5 -9 -3 -10 -2 -17 3 -17 5 0 16 -16 24 -35 8
-19 20 -35 25 -35 6 0 8 -7 5 -15 -4 -8 -1 -15 6 -15 6 0 8 -4 5 -10 -3 -5 -1
-10 4 -10 6 0 11 -5 11 -11 0 -6 7 -17 15 -26 8 -8 13 -19 10 -24 -4 -5 -1 -9
4 -9 6 0 11 -7 11 -15 0 -8 5 -15 10 -15 6 0 10 -7 10 -15 0 -8 5 -15 11 -15
5 0 8 -4 4 -10 -3 -5 4 -19 15 -30 11 -11 18 -25 15 -30 -4 -6 -1 -10 4 -10 6
0 11 -7 11 -15 0 -8 5 -15 10 -15 6 0 10 -9 10 -21 0 -11 5 -17 10 -14 6 3 10
0 10 -9 0 -8 6 -17 13 -19 9 -4 8 -6 -2 -6 -10 -1 -8 -6 6 -19 11 -9 23 -26
25 -37 2 -11 10 -19 17 -17 9 2 10 -4 6 -19 -5 -15 -4 -19 4 -15 7 4 11 -1 11
-12 0 -11 7 -23 16 -26 8 -3 13 -10 10 -15 -4 -5 1 -16 10 -25 8 -9 13 -20 10
-24 -3 -5 3 -16 12 -25 24 -22 36 -40 40 -57 2 -8 7 -17 10 -20 15 -11 61
-107 55 -114 -3 -3 1 -6 10 -6 8 0 19 -10 23 -22 4 -13 12 -26 18 -30 7 -5 6
-8 -4 -8 -10 0 -7 -5 8 -16 12 -8 22 -21 22 -28 0 -8 7 -19 15 -26 8 -7 12
-16 9 -21 -3 -5 0 -9 6 -9 6 0 8 -4 5 -10 -3 -5 -1 -10 5 -10 6 0 8 -4 5 -10
-3 -5 1 -10 9 -10 9 0 15 -3 14 -7 -4 -14 13 -53 23 -53 5 0 9 -7 9 -15 0 -8
5 -15 11 -15 8 0 7 -6 -2 -17 -7 -10 -10 -15 -5 -11 11 9 36 -16 36 -37 0 -9
5 -13 10 -10 6 3 10 -3 10 -14 0 -12 3 -21 8 -21 7 0 37 -59 35 -70 0 -3 12
-21 28 -41 16 -20 29 -42 29 -48 0 -6 5 -11 11 -11 5 0 8 -4 5 -9 -3 -5 1 -14
9 -21 8 -7 15 -19 15 -26 0 -8 5 -14 11 -14 5 0 8 -4 5 -9 -3 -4 3 -19 14 -31
11 -12 17 -26 15 -30 -3 -4 2 -10 10 -14 9 -3 12 -12 8 -23 -3 -10 -3 -15 2
-11 7 7 36 -35 51 -74 3 -10 10 -18 15 -18 5 0 9 -9 9 -20 0 -11 5 -20 10 -20
6 0 10 -7 10 -15 0 -8 5 -15 10 -15 6 0 10 -9 10 -19 0 -11 4 -21 9 -23 5 -1
11 -10 13 -18 2 -8 11 -21 21 -28 9 -7 17 -22 17 -32 0 -11 9 -28 21 -39 12
-11 18 -24 14 -30 -3 -6 -2 -11 4 -11 5 0 13 -9 16 -20 4 -11 10 -18 15 -15 4
3 7 -6 6 -20 -2 -13 0 -22 5 -20 4 3 10 -4 14 -15 3 -11 11 -20 16 -20 6 0 8
-4 4 -9 -3 -6 3 -14 12 -20 10 -6 14 -11 9 -11 -5 0 -3 -7 4 -15 6 -8 8 -20 4
-26 -4 -7 -3 -9 3 -6 10 6 17 -4 25 -31 1 -4 8 -13 15 -20 7 -8 11 -18 8 -23
-4 -5 0 -9 8 -9 8 0 18 -7 21 -16 3 -8 2 -12 -4 -9 -6 3 -7 -1 -4 -10 4 -9 12
-14 19 -11 9 3 12 -3 10 -19 -1 -14 4 -26 13 -30 8 -3 12 -8 9 -11 -8 -8 16
-33 25 -27 4 2 5 -3 2 -11 -3 -9 -1 -16 6 -16 6 0 8 -4 5 -10 -3 -5 -1 -10 5
-10 6 0 8 -4 5 -10 -3 -5 -1 -10 6 -10 7 0 9 -3 6 -7 -4 -3 1 -12 11 -19 10
-8 12 -13 5 -14 -7 0 -13 -4 -13 -10 0 -5 6 -7 13 -5 7 3 21 -13 34 -35 12
-22 16 -38 10 -34 -7 3 -3 -2 7 -10 11 -9 21 -23 22 -31 1 -8 9 -22 18 -31 9
-8 16 -22 16 -29 0 -8 8 -19 18 -24 13 -8 14 -10 2 -11 -10 0 -7 -5 8 -16 12
-8 22 -26 22 -40 0 -13 5 -23 12 -21 7 1 13 -4 14 -10 1 -7 2 -18 3 -24 0 -5
5 -7 11 -4 6 3 7 -1 4 -9 -3 -9 -2 -16 3 -16 5 0 20 -22 34 -50 13 -27 28 -50
32 -50 5 0 6 -4 2 -9 -3 -6 3 -14 12 -20 10 -6 14 -11 9 -11 -6 0 -1 -7 10
-16 10 -8 13 -13 7 -9 -20 10 -15 -9 6 -25 11 -7 18 -17 15 -22 -3 -4 0 -8 6
-8 7 0 10 -6 7 -14 -3 -8 1 -17 10 -20 9 -4 13 -12 9 -23 -4 -10 -4 -14 0 -11
8 9 64 -73 58 -84 -3 -4 0 -8 7 -8 7 0 10 -3 6 -6 -3 -4 1 -13 9 -21 8 -8 12
-18 9 -23 -3 -4 2 -10 10 -14 8 -3 15 -12 15 -21 0 -8 5 -15 11 -15 5 0 7 -4
4 -10 -3 -6 -1 -10 5 -10 6 0 8 -4 5 -10 -3 -5 -1 -10 4 -10 6 0 11 -7 11 -15
0 -8 4 -15 10 -15 5 0 9 -6 7 -12 -1 -7 3 -12 10 -11 7 2 10 -3 7 -11 -3 -7 2
-20 10 -29 8 -8 13 -17 10 -19 -2 -3 2 -11 11 -18 8 -7 15 -19 15 -26 0 -8 5
-14 10 -14 6 0 10 -9 10 -20 0 -11 7 -23 16 -27 8 -3 13 -11 10 -18 -3 -8 2
-16 11 -19 8 -4 13 -12 10 -20 -3 -8 2 -16 14 -19 11 -3 19 -14 19 -26 0 -12
5 -21 11 -21 5 0 8 -4 4 -9 -3 -5 2 -16 10 -24 8 -9 15 -20 15 -26 0 -6 5 -11
10 -11 6 0 10 -12 10 -27 0 -14 3 -23 7 -20 8 9 32 -24 33 -45 0 -10 4 -18 9
-18 5 0 14 -13 20 -30 5 -16 15 -30 20 -30 6 0 11 -5 11 -11 0 -5 -5 -7 -12
-3 -7 5 -8 3 -4 -5 5 -7 14 -10 21 -7 8 3 11 -2 8 -15 -3 -11 0 -19 6 -19 7 0
9 -4 6 -10 -3 -6 -1 -10 4 -10 6 0 11 -7 11 -15 0 -9 7 -18 15 -21 8 -4 12
-10 9 -15 -7 -12 21 -51 30 -42 4 4 4 0 0 -10 -3 -10 -1 -17 5 -17 6 0 10 -6
8 -12 -1 -7 3 -12 9 -11 6 1 11 -5 12 -13 1 -8 3 -20 4 -28 1 -8 4 -14 7 -13
3 1 7 -2 9 -8 2 -5 10 -17 18 -26 8 -9 11 -19 7 -22 -3 -4 -1 -7 6 -7 7 0 9
-4 6 -10 -3 -5 -1 -10 4 -10 6 0 11 -7 11 -15 0 -8 5 -15 12 -15 6 0 8 -3 5
-7 -4 -3 1 -12 11 -20 11 -9 11 -12 2 -7 -8 4 -5 -3 8 -15 12 -12 22 -30 22
-41 0 -10 9 -25 20 -33 11 -8 18 -16 15 -19 -3 -3 1 -11 10 -18 8 -7 15 -21
15 -31 0 -11 5 -19 10 -19 6 0 10 -6 10 -14 0 -8 4 -16 10 -18 5 -1 11 -14 13
-27 2 -13 11 -29 20 -36 9 -7 17 -20 17 -29 0 -9 4 -16 9 -16 5 0 14 -13 21
-30 7 -16 16 -27 21 -24 5 3 6 -1 3 -9 -3 -8 2 -21 10 -30 9 -9 16 -20 16 -26
0 -6 5 -11 11 -11 5 0 8 -4 4 -9 -3 -5 2 -16 10 -24 8 -9 15 -20 15 -26 0 -6
5 -11 11 -11 5 0 8 -4 4 -9 -3 -5 -1 -12 5 -16 6 -4 7 -11 4 -17 -4 -6 -2 -8
4 -4 6 3 15 -8 22 -29 6 -19 16 -33 21 -30 5 4 9 2 9 -4 0 -7 39 -10 105 -9
58 0 108 -2 111 -5 4 -3 16 -2 29 3 14 5 26 5 34 -3 6 -6 11 -7 11 -1 0 9 157
10 167 0 3 -3 14 -1 24 5 13 7 19 6 19 -1 0 -6 5 -8 10 -5 13 8 179 9 187 2 3
-3 15 -2 28 3 14 5 26 5 34 -3 6 -6 11 -7 11 -1 0 9 157 10 167 0 3 -3 14 -1
24 5 13 7 19 6 19 -1 0 -6 5 -8 11 -4 7 4 36 6 66 5 35 -1 52 2 48 9 -3 5 0
10 7 11 7 0 3 4 -10 10 -13 5 -20 13 -17 19 3 6 -1 13 -9 16 -9 3 -16 12 -16
20 0 8 -6 14 -12 14 -10 0 -10 2 0 9 11 6 10 10 -4 15 -9 3 -14 9 -11 12 3 3
-3 14 -14 25 -11 11 -17 24 -14 28 2 5 -2 11 -10 15 -8 3 -15 12 -15 21 0 8
-5 15 -11 15 -5 0 -7 5 -4 10 3 6 0 13 -9 16 -8 3 -12 12 -9 20 3 7 -2 17 -11
20 -9 3 -16 12 -16 20 0 8 -4 14 -10 14 -5 0 -10 9 -10 19 0 11 -5 21 -11 23
-5 2 -11 11 -13 20 -1 10 -6 21 -11 25 -4 4 -5 2 0 -6 5 -9 4 -12 -3 -7 -6 3
-13 19 -17 35 -3 16 -13 32 -21 35 -9 3 -12 10 -9 16 3 5 1 10 -4 10 -6 0 -11
7 -11 15 0 8 -5 15 -11 15 -5 0 -7 5 -4 10 3 6 1 10 -5 10 -6 0 -8 5 -5 10 3
6 2 10 -3 10 -10 0 -58 90 -54 102 1 4 -4 7 -10 6 -7 -2 -12 5 -10 15 2 10 -3
17 -14 17 -10 0 -14 3 -11 6 4 4 -2 19 -13 34 -11 16 -20 31 -20 35 0 4 -8 14
-17 22 -11 9 -12 11 -3 7 11 -6 10 -2 -2 13 -10 11 -18 25 -18 31 0 7 -4 12
-10 12 -5 0 -10 7 -10 16 0 8 -5 12 -10 9 -6 -4 -9 -3 -8 2 4 15 -13 53 -24
53 -6 0 -9 3 -5 6 3 4 -1 13 -9 21 -8 8 -12 18 -9 23 3 5 -4 15 -16 24 -14 9
-19 21 -15 31 3 9 2 14 -3 11 -4 -3 -18 9 -31 27 -20 26 -20 29 -4 17 14 -11
14 -8 -3 11 -13 14 -23 31 -23 37 0 7 -4 12 -10 12 -5 0 -10 7 -10 15 0 9 -7
18 -15 21 -8 4 -13 10 -10 14 3 4 -4 19 -15 32 -11 14 -16 28 -13 32 3 3 -1 6
-10 6 -9 0 -17 5 -17 11 0 5 6 7 13 3 8 -5 8 -3 -2 9 -7 9 -18 14 -25 10 -6
-4 -4 2 4 12 9 11 10 16 3 11 -8 -4 -13 -2 -13 8 0 8 -4 16 -9 18 -5 2 -11 10
-13 18 -2 8 -11 23 -20 34 -10 11 -18 26 -18 33 0 7 -4 13 -10 13 -5 0 -10 7
-10 16 0 8 -4 13 -8 10 -5 -3 -9 1 -10 9 -1 8 -3 22 -4 30 -1 8 -5 12 -10 9
-4 -3 -8 2 -8 10 0 9 -3 16 -7 16 -5 0 -17 18 -27 40 -11 22 -24 40 -30 40 -6
0 -4 5 4 10 13 8 12 10 -2 10 -12 0 -18 8 -18 22 0 12 -3 18 -7 15 -7 -8 -33
39 -33 60 0 8 -4 12 -9 9 -9 -6 -31 36 -31 60 0 8 -4 13 -8 10 -5 -3 -19 13
-31 34 -12 22 -19 40 -16 40 4 0 -3 9 -16 21 -13 11 -17 18 -9 14 8 -4 6 1 -4
9 -11 9 -16 16 -10 16 5 0 0 7 -10 15 -11 8 -16 15 -10 15 5 0 0 7 -10 15 -11
8 -14 15 -8 15 10 0 10 3 0 14 -7 8 -16 12 -21 9 -4 -2 -7 -1 -6 4 4 22 -2 43
-11 38 -5 -3 -10 3 -10 14 0 12 -4 21 -10 21 -5 0 -10 7 -10 15 0 8 -5 15 -11
15 -5 0 -7 5 -4 10 3 6 1 10 -6 10 -7 0 -9 3 -6 6 4 4 -2 15 -14 25 -14 12
-16 18 -7 22 8 3 6 6 -5 6 -10 1 -15 6 -12 11 3 6 1 10 -4 10 -6 0 -11 7 -11
16 0 8 -7 22 -15 31 -8 8 -13 19 -9 24 3 5 0 8 -7 7 -7 -2 -14 2 -14 7 -3 22
-24 62 -39 74 -9 7 -16 20 -16 28 0 8 -4 11 -10 8 -5 -3 -7 0 -4 8 3 8 -2 20
-11 27 -8 7 -15 19 -15 26 0 8 -4 14 -10 14 -5 0 -10 7 -10 15 0 8 -4 15 -10
15 -5 0 -10 9 -10 20 0 11 -5 20 -11 20 -5 0 -7 5 -4 10 3 6 -1 10 -9 10 -9 0
-13 7 -11 20 2 13 -2 20 -11 20 -8 0 -12 5 -9 10 3 6 1 10 -5 10 -6 0 -8 5 -5
10 3 6 1 10 -4 10 -6 0 -11 7 -11 15 0 7 -8 19 -17 24 -10 6 -15 11 -11 11 4
0 -1 15 -12 33 -11 17 -27 47 -37 65 -9 17 -21 32 -25 32 -5 0 -6 5 -3 10 3 6
1 10 -4 10 -6 0 -11 7 -11 15 0 8 -4 15 -10 15 -5 0 -10 9 -10 21 0 13 -4 18
-12 13 -7 -5 -9 0 -6 14 4 13 2 20 -6 19 -6 -1 -10 4 -9 11 2 6 -1 12 -7 12
-5 0 -16 16 -24 35 -8 19 -20 35 -27 35 -7 0 -9 3 -6 7 4 3 2 12 -4 20 -6 7
-8 13 -4 13 5 0 -1 8 -12 18 -11 9 -19 25 -17 34 1 12 -3 15 -14 11 -10 -4
-14 -3 -10 2 4 4 3 14 -3 22 -6 7 -8 13 -4 13 5 0 -5 12 -21 26 -16 15 -22 23
-14 18 12 -6 13 -5 3 8 -7 8 -9 19 -5 23 4 5 1 5 -5 1 -9 -5 -13 0 -13 14 0
12 -4 18 -10 15 -5 -3 -10 0 -10 9 0 8 -6 17 -12 19 -10 4 -9 6 1 6 10 1 7 7
-8 20 -12 11 -23 28 -24 39 0 12 -5 18 -9 16 -10 -6 -28 38 -20 50 3 5 0 6 -5
3 -6 -4 -17 1 -24 10 -12 14 -12 16 1 9 9 -4 8 -1 -2 7 -10 8 -18 22 -18 31 0
9 -4 16 -10 16 -5 0 -10 5 -10 10 0 6 -9 21 -20 32 -15 17 -17 24 -8 30 9 5 8
8 -5 8 -10 0 -15 5 -12 10 3 6 1 10 -4 10 -6 0 -11 7 -11 15 0 8 -5 15 -11 15
-5 0 -8 4 -4 9 3 5 -3 16 -13 23 -11 7 -18 21 -16 31 1 9 -2 15 -7 11 -5 -3
-9 1 -9 10 0 8 -5 16 -10 18 -6 2 -12 13 -13 25 0 12 -6 21 -12 20 -5 -1 -9 4
-8 11 2 6 -2 12 -7 12 -6 0 -10 7 -10 15 0 8 -5 15 -11 15 -5 0 -7 5 -4 10 3
6 2 10 -2 10 -5 0 -14 9 -21 21 -11 17 -11 20 0 14 7 -3 5 0 -4 8 -10 8 -18
19 -18 26 0 6 -5 11 -11 11 -5 0 -7 5 -4 10 3 6 1 10 -5 10 -6 0 -8 5 -5 10 3
6 -1 10 -9 10 -8 0 -13 6 -10 13 2 7 -5 22 -16 34 -11 12 -20 26 -20 30 0 4
-9 19 -20 33 -11 14 -20 33 -20 43 0 10 -4 16 -9 13 -11 -7 -23 22 -14 36 3 7
1 8 -5 4 -10 -6 -18 8 -9 17 6 6 -29 34 -37 29 -5 -3 -6 0 -2 7 5 7 0 19 -10
27 -11 9 -12 12 -4 8 8 -5 -1 12 -20 36 -19 24 -28 40 -20 36 8 -5 5 1 -8 13
-12 12 -20 26 -17 32 4 5 2 9 -3 9 -5 0 -17 12 -27 26 -11 18 -13 24 -4 19 8
-5 6 1 -4 12 -9 11 -14 23 -10 27 4 4 -1 4 -11 0 -14 -5 -17 -4 -12 5 5 7 -1
23 -15 38 -13 15 -17 23 -9 19 9 -5 8 -2 -2 7 -10 8 -15 17 -11 20 3 4 1 7 -5
7 -10 0 -28 38 -24 53 1 4 -1 6 -5 5 -5 -2 -9 2 -11 7 -2 6 -10 17 -18 26 -8
9 -11 19 -7 22 3 4 -1 7 -10 7 -10 0 -14 5 -11 15 4 8 1 15 -6 15 -6 0 -9 4
-6 9 3 5 -1 12 -10 15 -8 3 -13 10 -10 14 3 5 -4 15 -14 22 -16 11 -17 17 -7
29 8 10 9 13 0 8 -7 -4 -16 5 -25 23 -7 16 -16 30 -20 30 -5 0 -8 7 -8 16 0 8
-4 13 -9 10 -5 -4 -8 2 -7 11 2 9 -7 26 -19 37 -12 12 -20 27 -18 34 3 6 0 12
-7 12 -6 0 -8 5 -5 10 3 6 -1 10 -10 10 -9 0 -14 4 -11 9 3 5 -3 20 -14 33
-11 14 -16 28 -13 32 3 3 -1 6 -10 6 -10 0 -17 5 -17 11 0 5 6 7 13 3 6 -4 0
6 -16 23 -15 16 -24 32 -20 36 3 4 0 7 -7 7 -7 0 -11 3 -7 6 3 3 1 11 -4 18
-42 50 -49 61 -44 73 2 8 1 12 -4 9 -5 -3 -15 9 -22 27 -7 17 -20 38 -29 45
-12 11 -13 12 0 6 8 -4 5 3 -7 15 -13 12 -26 33 -29 46 -3 14 -10 22 -15 19
-5 -3 -9 2 -9 12 0 9 -8 23 -17 31 -10 8 -11 11 -3 7 8 -5 5 4 -8 20 -12 16
-19 33 -15 40 3 6 3 8 -1 4 -11 -9 -35 14 -29 28 2 6 -3 14 -12 18 -10 3 -15
12 -11 21 3 9 0 15 -10 15 -8 0 -13 4 -9 9 3 5 1 12 -5 16 -6 4 -7 11 -4 17 4
7 2 8 -4 4 -10 -6 -18 8 -9 17 1 1 -8 13 -20 27 -13 13 -23 30 -23 37 0 7 -5
13 -11 13 -5 0 -8 4 -5 9 3 4 -6 21 -19 37 -14 16 -25 35 -25 42 0 6 -4 12
-10 12 -5 0 -10 7 -10 15 0 8 -5 15 -11 15 -5 0 -8 4 -4 9 3 5 -2 16 -10 24
-8 9 -15 20 -15 26 0 6 -5 11 -11 11 -5 0 -7 5 -4 10 3 6 1 10 -5 10 -6 0 -9
4 -6 9 3 5 -1 12 -10 15 -8 3 -13 10 -9 15 3 5 1 12 -5 16 -6 4 -8 11 -4 16 3
5 0 8 -6 7 -7 -2 -18 12 -24 31 -7 19 -18 37 -24 39 -7 2 -12 10 -12 18 0 8
-5 14 -11 14 -5 0 -7 5 -4 10 3 6 2 10 -3 10 -5 0 -17 18 -27 40 -10 22 -22
40 -27 40 -5 0 -6 5 -3 10 3 6 1 10 -5 10 -6 0 -8 5 -5 10 3 6 1 10 -4 10 -6
0 -11 7 -11 15 0 9 -7 18 -16 22 -8 3 -13 11 -10 18 3 8 -2 16 -11 19 -9 4
-13 13 -9 22 3 8 2 12 -4 9 -6 -3 -10 0 -10 8 0 8 -7 20 -15 27 -8 7 -13 16
-10 20 3 4 -2 11 -11 14 -8 3 -12 10 -9 16 3 5 1 10 -4 10 -6 0 -11 5 -11 11
0 6 -7 17 -15 26 -8 8 -13 19 -10 24 4 5 1 9 -4 9 -6 0 -11 5 -11 10 0 6 -9
20 -20 32 -11 12 -20 28 -20 36 0 18 -26 43 -36 34 -5 -4 -3 1 4 10 11 14 10
18 -7 28 -12 6 -20 16 -18 23 1 7 -3 11 -10 10 -7 -2 -10 3 -8 10 3 6 1 17 -3
22 -12 17 -43 39 -41 29z"/>
<path d="M3424 4565 c-4 -8 -11 -15 -16 -15 -12 0 -47 -41 -48 -56 0 -7 -7
-15 -16 -18 -9 -4 -14 -9 -11 -13 9 -9 -12 -44 -23 -38 -5 3 -7 -4 -5 -15 2
-11 0 -20 -6 -20 -5 0 -9 -6 -9 -13 0 -7 -9 -19 -20 -27 -14 -10 -17 -17 -8
-27 8 -11 7 -12 -7 -6 -15 5 -17 3 -12 -11 4 -9 3 -15 -2 -12 -5 3 -11 -4 -14
-15 -4 -14 -10 -18 -19 -13 -9 6 -9 2 2 -12 8 -10 11 -16 6 -12 -10 8 -36 -14
-29 -25 3 -4 -4 -16 -16 -26 -11 -10 -18 -21 -14 -25 3 -3 1 -6 -6 -6 -7 0
-10 -4 -7 -9 3 -5 -1 -12 -10 -15 -8 -3 -12 -10 -9 -16 3 -5 -1 -10 -10 -10
-9 0 -13 -5 -9 -11 3 -6 -7 -25 -22 -42 -16 -17 -20 -25 -9 -17 11 8 3 -6 -18
-31 -20 -25 -34 -49 -30 -52 3 -4 -2 -9 -11 -13 -9 -3 -13 -10 -10 -15 3 -5 0
-9 -6 -9 -7 0 -10 -7 -7 -14 4 -10 1 -13 -9 -9 -9 3 -14 -2 -14 -16 0 -12 -5
-21 -11 -21 -5 0 -8 -4 -5 -9 3 -5 -1 -12 -9 -15 -8 -3 -14 -11 -13 -18 2 -7
-2 -12 -9 -11 -7 2 -10 -6 -8 -17 2 -12 -2 -20 -10 -20 -8 0 -17 -5 -21 -12
-4 -7 -3 -8 4 -4 7 4 3 -9 -9 -28 -12 -20 -25 -36 -31 -36 -5 0 -6 -4 -3 -10
3 -5 1 -10 -6 -10 -7 0 -9 -3 -6 -7 4 -3 0 -11 -9 -17 -8 -6 -17 -20 -18 -31
-2 -11 -9 -19 -15 -18 -11 3 -15 -10 -12 -35 1 -7 -2 -11 -6 -10 -4 2 -8 1 -9
-2 -3 -17 -26 -50 -33 -46 -4 3 -8 -1 -9 -9 -1 -8 -3 -22 -4 -30 -1 -8 -3 -13
-6 -10 -5 5 -32 -20 -32 -30 0 -3 5 -3 12 1 7 4 8 3 4 -4 -4 -7 -14 -12 -22
-12 -8 0 -13 -4 -11 -9 1 -5 -7 -17 -18 -26 -11 -9 -14 -14 -7 -10 6 3 15 0
18 -8 3 -8 13 -14 22 -12 9 2 17 4 17 5 0 1 8 3 18 5 9 2 17 -2 17 -8 0 -7 5
-5 10 3 9 13 10 13 10 0 0 -13 1 -13 10 0 9 13 10 13 10 0 0 -13 1 -13 10 0 5
8 10 10 10 4 0 -7 7 -15 16 -18 14 -5 15 -4 5 8 -13 16 -16 16 49 2 11 -3 22
-1 25 5 4 5 11 9 16 9 6 0 8 -4 4 -9 -6 -10 27 -7 44 4 5 3 12 1 16 -5 3 -5
11 -10 16 -10 6 0 7 5 3 12 -5 7 -3 8 7 2 21 -13 39 -14 39 -1 0 7 5 5 10 -3
6 -10 10 -11 10 -2 0 6 5 12 11 12 5 0 8 -4 4 -9 -6 -10 33 -6 43 4 3 2 11 0
19 -6 10 -9 13 -8 13 1 0 10 3 10 14 1 11 -9 16 -9 22 0 5 8 3 9 -6 4 -9 -6
-11 -4 -5 5 6 10 11 9 22 -5 7 -11 13 -13 13 -6 0 7 5 9 10 6 6 -3 10 0 10 7
0 10 3 9 9 -2 6 -8 7 -19 5 -25 -3 -5 2 -1 10 9 12 15 16 16 16 5 0 -12 2 -12
10 1 9 13 10 13 10 0 0 -12 2 -12 9 -1 6 10 10 10 16 1 6 -9 9 -9 15 1 7 10
12 10 26 -2 13 -10 16 -10 10 -1 -6 9 -3 12 10 10 11 -2 22 -10 26 -18 5 -12
7 -12 7 3 1 9 8 17 17 17 8 0 13 -4 10 -9 -9 -13 19 -7 38 8 14 12 16 12 11
-1 -5 -11 1 -14 22 -12 15 1 34 2 41 3 7 1 10 7 7 14 -4 6 1 3 9 -7 12 -15 16
-16 16 -5 0 12 2 12 10 -1 9 -13 10 -13 10 0 0 13 1 13 10 0 8 -12 10 -12 10
-1 0 11 3 11 17 0 15 -12 16 -12 10 4 -6 15 -4 16 13 7 11 -6 20 -16 20 -21 0
-6 9 -1 20 12 18 21 19 22 14 4 -6 -20 -5 -20 10 -1 16 20 16 20 16 0 0 -10 4
-15 8 -9 11 15 32 17 32 2 0 -8 4 -7 10 3 9 13 11 13 20 0 8 -13 10 -12 10 4
0 20 0 20 16 0 8 -10 13 -13 9 -6 -3 6 -2 12 4 12 5 0 12 -6 14 -12 4 -10 6
-10 6 0 1 6 8 12 17 12 9 0 12 -5 8 -12 -6 -10 -4 -10 7 -2 19 15 79 16 79 1
0 -7 4 -6 10 3 8 13 13 13 31 2 11 -8 18 -9 14 -3 -3 6 -1 11 4 11 6 0 11 -6
11 -12 0 -7 7 -2 16 10 15 22 34 22 34 -1 0 -8 -3 -8 -9 2 -6 9 -11 10 -15 2
-4 -6 -4 -11 1 -12 4 0 16 -2 25 -4 10 -2 21 1 24 6 3 6 12 5 22 -3 13 -11 14
-11 8 1 -6 9 -5 12 5 9 8 -3 23 2 34 11 12 9 15 10 8 1 -20 -22 -15 -35 6 -16
14 13 21 14 27 5 5 -8 3 -10 -6 -4 -9 5 -11 4 -6 -3 5 -9 13 -8 29 3 13 8 28
11 36 6 7 -5 23 -6 35 -4 18 4 19 3 6 -7 -13 -10 -12 -11 3 -6 10 3 21 6 23 6
3 0 3 4 0 9 -8 12 35 2 53 -13 12 -9 13 -7 8 8 -7 18 -6 18 17 2 15 -10 27
-12 31 -6 3 6 13 10 21 10 8 0 12 -4 9 -10 -3 -6 1 -7 9 -4 9 3 14 10 11 14
-7 11 36 0 54 -14 12 -9 13 -7 8 8 -7 17 -6 17 15 4 18 -12 27 -13 40 -4 13 8
23 8 35 0 13 -7 25 -7 42 2 16 8 31 9 42 4 9 -5 19 -7 22 -3 4 3 13 0 22 -7
12 -10 16 -9 20 2 4 10 16 14 33 11 15 -2 34 -4 42 -5 8 0 20 -5 27 -10 7 -5
13 -5 17 0 8 13 60 12 68 -2 6 -8 8 -8 8 1 0 7 7 10 17 6 10 -4 14 -2 10 4 -4
6 3 8 18 5 15 -2 22 -9 18 -16 -4 -6 0 -5 9 2 9 7 28 11 42 8 14 -3 26 0 26 6
0 6 12 3 26 -7 15 -9 24 -13 20 -7 -3 5 3 12 14 15 11 3 18 1 14 -4 -3 -5 0
-9 5 -9 6 0 11 4 11 8 0 14 41 7 51 -9 7 -11 9 -11 9 4 0 15 3 16 20 7 15 -8
20 -8 20 2 0 9 3 9 10 -2 7 -11 10 -11 10 -2 0 10 5 10 21 1 17 -9 20 -8 13 3
-6 11 -5 11 9 -1 9 -7 17 -10 17 -5 0 11 51 10 68 0 7 -4 12 -2 12 4 0 8 6 8
20 0 15 -8 20 -8 20 2 0 9 3 9 10 -2 5 -8 10 -10 10 -4 0 12 36 12 47 -1 5 -4
2 -5 -6 0 -10 6 -12 4 -6 -5 6 -10 10 -10 19 3 9 11 16 13 30 5 15 -8 17 -8
10 3 -7 12 -5 12 9 0 12 -9 17 -10 17 -2 0 9 5 9 21 0 17 -9 20 -8 13 3 -6 11
-5 11 9 -1 9 -7 17 -9 17 -3 0 6 13 7 35 2 24 -5 35 -4 35 4 0 6 5 4 10 -4 5
-8 10 -10 10 -5 0 11 66 12 77 2 3 -4 12 1 20 11 8 9 12 12 9 6 -3 -7 3 -14
14 -17 11 -3 20 0 20 6 0 7 5 5 10 -3 8 -12 10 -12 10 -1 0 11 3 11 15 1 11
-9 15 -9 15 -1 0 8 5 9 17 2 12 -7 21 -5 30 7 7 10 13 13 12 7 -3 -21 2 -23
30 -15 24 7 31 5 34 -8 4 -13 5 -13 6 3 1 17 3 18 11 5 7 -11 10 -11 10 -2 0
7 5 10 11 7 15 -10 88 -12 82 -2 -6 10 5 9 28 -3 14 -8 19 -7 20 2 0 7 4 4 9
-7 8 -19 9 -19 9 -1 1 15 4 16 16 6 12 -10 15 -10 15 0 0 9 4 9 17 -1 14 -12
16 -12 8 0 -6 11 -4 13 11 7 32 -13 55 -15 49 -5 -9 13 9 11 23 -3 8 -8 12 -8
12 -1 0 6 11 8 25 5 14 -2 22 -9 19 -16 -3 -6 1 -3 9 6 10 13 17 14 25 6 8 -8
15 -8 27 2 13 10 15 9 15 -6 0 -11 3 -15 8 -8 11 16 52 24 53 11 0 -7 4 -3 9
8 7 17 9 17 9 3 1 -10 6 -18 12 -18 5 0 7 6 3 13 -6 9 -5 9 8 0 8 -7 18 -10
21 -6 12 11 75 7 92 -7 13 -11 14 -10 8 6 -6 17 -5 18 12 4 11 -9 16 -10 11
-2 -9 15 -1 15 24 2 15 -8 21 -6 29 7 6 10 11 13 11 6 0 -7 14 -12 33 -12 38
0 57 -4 75 -15 12 -7 12 -4 1 15 -11 22 -11 23 5 10 9 -8 19 -11 23 -8 3 4 12
2 20 -4 10 -9 13 -7 13 7 0 16 2 16 9 4 6 -8 7 -18 4 -24 -3 -5 -1 -6 6 -2 6
4 9 12 6 17 -4 5 -1 9 4 9 6 0 11 -6 11 -12 0 -8 7 -5 15 6 8 11 15 15 15 9 0
-7 21 -11 50 -11 33 -1 48 3 44 10 -4 5 6 2 22 -8 15 -11 25 -13 21 -6 -10 16
5 16 22 0 12 -11 13 -10 7 6 -5 14 -3 16 6 9 7 -5 22 -13 32 -17 17 -6 17 -5
5 11 -13 16 -11 16 15 -1 24 -15 28 -16 23 -3 -4 11 -2 14 8 10 8 -3 12 -10 8
-17 -3 -6 3 -3 14 7 21 18 58 13 46 -7 -4 -6 0 -5 9 2 14 11 18 10 28 -5 10
-16 11 -16 7 4 -3 15 -1 20 9 16 8 -3 11 -10 7 -17 -3 -6 3 -3 14 7 21 18 58
13 46 -7 -4 -7 -2 -7 8 1 12 10 18 10 29 0 10 -10 12 -9 7 5 -4 12 -2 15 8 11
8 -3 13 -8 11 -12 -3 -4 4 -7 14 -7 14 0 16 3 8 13 -8 10 -1 9 25 -2 26 -11
38 -12 43 -3 5 7 3 8 -6 3 -9 -5 -11 -4 -6 4 4 6 13 8 19 4 20 -12 55 -14 62
-3 3 5 12 10 18 10 7 0 6 -4 -3 -10 -13 -8 -12 -10 3 -10 9 0 17 5 17 12 0 6
7 3 16 -8 8 -10 13 -13 9 -6 -7 13 20 13 42 -1 6 -4 15 -2 19 4 5 8 3 9 -6 4
-9 -5 -11 -4 -6 4 4 6 13 8 19 4 20 -12 41 -12 56 0 10 8 13 8 8 1 -4 -7 0
-15 9 -18 8 -3 12 -2 9 3 -3 5 -1 12 5 16 5 3 10 1 10 -6 0 -9 3 -9 14 0 11 9
16 9 22 0 5 -8 3 -9 -6 -4 -9 5 -11 4 -6 -4 6 -9 11 -9 23 0 22 19 55 19 48 1
-4 -12 -3 -13 10 -2 12 10 15 10 15 -1 0 -11 2 -11 10 1 5 8 10 11 10 7 0 -4
10 -2 23 4 21 12 21 11 7 -6 -14 -17 -13 -18 5 -9 11 5 33 9 48 8 15 0 30 3
33 7 3 5 10 9 16 9 7 0 6 -5 -1 -14 -10 -12 -8 -13 11 -9 13 4 26 11 30 17 5
8 8 7 8 -1 0 -7 5 -13 11 -13 5 0 8 4 5 8 -3 5 1 9 9 9 8 0 12 -4 9 -9 -3 -4
2 -8 11 -8 9 0 14 4 11 8 -3 5 1 9 9 9 8 0 12 -4 9 -9 -3 -4 2 -8 11 -8 9 0
14 4 11 8 -3 5 1 9 9 9 8 0 12 -4 10 -8 -3 -3 4 -9 14 -12 12 -3 18 0 15 7 -2
6 4 12 15 12 11 0 17 -4 15 -8 -6 -10 10 -11 20 -1 11 12 37 12 29 0 -4 -6 0
-8 9 -4 9 3 21 0 27 -6 9 -9 11 -8 6 3 -4 11 1 16 14 16 11 0 17 -4 15 -8 -6
-10 10 -11 20 -1 11 12 37 12 29 0 -4 -6 0 -8 9 -4 9 3 21 0 27 -6 9 -9 11 -8
5 7 -6 16 -4 17 13 8 11 -6 23 -8 27 -5 10 10 56 11 50 1 -3 -4 -1 -8 5 -8 5
0 13 5 16 10 5 8 11 8 20 0 9 -8 15 -8 20 0 3 6 11 8 16 4 5 -3 17 0 25 7 12
10 15 10 12 -1 -2 -7 3 -15 11 -18 10 -3 11 0 5 9 -6 11 -3 10 11 -1 11 -9 16
-10 11 -2 -4 6 -2 12 3 12 6 0 11 -6 11 -12 0 -9 4 -8 10 2 5 8 10 10 10 4 0
-7 7 -14 14 -17 10 -4 13 -1 10 7 -3 7 2 13 11 13 8 0 15 -3 15 -7 0 -3 9 -6
19 -6 11 0 17 4 15 8 -3 4 -1 8 4 8 6 0 13 -8 17 -17 6 -17 7 -17 21 1 8 11
14 14 14 8 0 -7 5 -12 11 -12 5 0 8 4 5 8 -3 5 14 7 37 7 27 -2 41 -6 39 -14
-1 -7 2 -10 8 -6 6 3 8 11 5 16 -4 5 -1 9 4 9 6 0 11 -5 11 -11 0 -8 5 -7 16
2 10 8 18 9 22 2 10 -15 44 -12 38 4 -7 17 -1 16 19 -3 12 -13 19 -14 30 -4
11 9 15 10 15 1 0 -7 5 -9 12 -5 19 12 48 12 48 1 0 -6 9 -2 21 9 13 12 19 14
17 5 -2 -7 3 -16 11 -19 10 -3 12 0 7 14 -6 17 -5 17 15 -2 12 -10 20 -14 16
-8 -4 6 5 10 24 10 16 0 29 -3 29 -8 0 -4 5 -8 11 -8 5 0 8 4 5 8 -3 5 1 9 9
9 8 0 15 -5 15 -10 0 -5 7 -4 15 3 11 10 18 9 30 -4 20 -20 32 -21 16 -2 -10
11 -9 14 1 12 7 -1 18 -5 25 -9 6 -4 15 -2 19 4 5 8 9 7 14 -2 7 -10 11 -10
24 0 13 11 16 11 16 0 0 -10 3 -10 12 -1 16 16 31 15 22 0 -5 -9 -2 -9 9 1 14
11 17 11 17 0 0 -10 3 -10 12 -1 14 14 32 16 24 4 -3 -5 1 -9 9 -9 8 0 12 4 9
9 -3 4 2 8 10 8 9 0 16 -4 16 -10 0 -5 5 -10 11 -10 5 0 7 5 4 10 -3 6 1 10 9
10 9 0 16 -3 16 -8 0 -12 97 -7 113 7 12 9 17 9 23 0 4 -8 3 -9 -4 -5 -7 4
-12 2 -12 -3 0 -14 13 -14 28 1 7 7 12 8 12 2 0 -12 35 -12 46 -1 12 12 26 8
18 -5 -6 -10 -4 -10 8 0 11 9 18 10 23 2 8 -13 25 -13 25 1 0 5 -6 7 -12 3 -7
-4 -10 -3 -5 1 11 13 58 13 47 0 -6 -7 -2 -11 11 -12 11 -1 17 2 14 8 -4 5 -1
9 5 9 7 0 9 8 5 21 -5 16 -4 20 6 15 8 -4 6 -1 -3 7 -10 8 -14 18 -10 22 4 5
-1 5 -10 2 -12 -4 -15 -2 -11 9 3 7 0 14 -6 14 -6 0 -8 7 -5 15 4 8 1 15 -6
15 -6 0 -9 4 -6 9 3 5 -1 14 -9 21 -8 7 -12 16 -9 21 3 5 1 9 -4 9 -4 0 -14
16 -22 35 -8 19 -18 31 -24 28 -6 -4 -5 0 2 9 10 13 10 17 -3 22 -9 3 -13 10
-10 16 3 5 1 10 -4 10 -6 0 -11 7 -11 15 0 8 -5 15 -10 15 -6 0 -9 3 -9 8 4
24 -2 42 -13 36 -8 -5 -9 -2 -5 9 3 10 2 17 -3 17 -6 0 -9 6 -8 13 2 6 -4 10
-12 9 -8 -2 -12 0 -8 3 4 4 1 20 -7 35 -8 15 -11 30 -8 34 4 3 0 6 -7 6 -7 0
-10 3 -7 7 4 3 -1 12 -11 20 -11 10 -12 12 -2 8 8 -4 5 2 -7 13 -17 15 -19 22
-10 32 9 10 9 11 0 6 -9 -5 -13 0 -13 13 0 12 -5 21 -11 21 -5 0 -7 -5 -3 -12
4 -7 3 -8 -5 -4 -6 4 -9 11 -6 16 7 12 -26 80 -39 80 -6 0 -4 5 4 10 12 8 12
10 -5 10 -13 0 -16 3 -8 8 9 6 7 12 -7 22 -16 11 -17 17 -7 29 9 11 9 13 0 8
-7 -4 -14 1 -18 13 -3 11 -10 20 -15 20 -5 0 -7 6 -4 13 2 7 -5 22 -16 34 -11
13 -17 29 -14 38 4 10 2 15 -6 13 -7 -2 -14 6 -16 16 -1 10 -9 23 -16 27 -11
7 -11 9 1 9 8 0 4 8 -10 21 -13 11 -18 18 -11 14 6 -3 12 -1 12 4 0 6 -7 11
-15 11 -9 0 -12 6 -8 17 4 11 3 14 -5 9 -8 -5 -12 0 -12 14 0 14 -4 19 -12 14
-10 -6 -10 -4 0 8 11 14 9 19 -10 32 -12 9 -18 16 -13 16 5 0 0 7 -11 16 -10
8 -13 13 -7 9 9 -4 11 -1 6 10 -3 9 -9 12 -12 7 -6 -10 -26 -15 -49 -13 -7 0
-10 5 -7 11 3 6 -1 7 -9 4 -9 -3 -14 -10 -11 -14 2 -4 -10 -5 -28 -3 -36 5
-39 5 -83 0 -25 -2 -31 0 -26 13 5 13 3 13 -11 1 -9 -7 -30 -15 -46 -16 -23
-2 -28 1 -23 13 4 11 2 13 -9 6 -22 -14 -102 -15 -111 -1 -6 9 -8 9 -8 0 0
-12 -57 -9 -85 4 -5 2 -1 -3 9 -11 26 -21 7 -20 -23 1 -14 9 -21 12 -18 6 4
-6 0 -14 -9 -17 -8 -3 -13 -2 -10 3 3 5 -1 11 -9 15 -8 3 -17 0 -21 -6 -4 -7
-9 -6 -15 3 -6 10 -9 11 -9 2 0 -7 -5 -13 -11 -13 -5 0 -7 6 -3 13 4 6 -1 4
-12 -5 -19 -16 -22 -16 -44 -1 -13 9 -20 12 -17 6 4 -6 0 -14 -9 -17 -8 -3
-13 -2 -10 3 3 5 -1 12 -10 15 -12 4 -15 2 -10 -9 7 -19 1 -19 -18 1 -9 8 -16
11 -16 5 0 -10 -31 -7 -53 5 -8 5 -7 2 2 -9 12 -15 12 -17 -3 -11 -9 3 -16 10
-16 16 0 5 -5 6 -10 3 -6 -4 -7 -12 -3 -18 4 -7 0 -6 -10 2 -9 7 -17 10 -17 5
0 -5 -5 -2 -10 6 -8 12 -10 12 -10 1 0 -9 -4 -10 -12 -4 -15 11 -68 11 -85 0
-8 -5 -13 -4 -13 3 0 6 -5 8 -10 5 -6 -4 -8 -12 -4 -18 3 -7 -2 -3 -10 7 -12
15 -16 16 -16 5 0 -12 -2 -12 -10 1 -9 14 -14 7 -11 -15 1 -5 -6 -1 -14 9 -8
11 -15 14 -15 8 0 -14 -21 -12 -32 3 -5 6 -8 4 -8 -5 0 -13 -1 -13 -10 0 -7
11 -10 11 -10 2 0 -8 -5 -10 -12 -6 -7 5 -21 9 -30 9 -14 1 -15 -1 -6 -12 8
-11 7 -12 -6 -7 -9 3 -16 10 -16 16 0 5 -5 6 -10 3 -6 -4 -8 -12 -4 -18 3 -7
-1 -4 -9 6 -16 20 -32 23 -21 5 6 -10 4 -10 -8 0 -13 10 -17 10 -21 0 -4 -10
-8 -10 -16 2 -10 13 -11 13 -11 0 0 -12 -2 -12 -9 -1 -6 9 -11 10 -15 2 -11
-18 -29 -13 -22 7 6 16 5 16 -7 0 -11 -13 -16 -15 -25 -6 -9 9 -12 9 -12 -1 0
-9 -4 -10 -12 -4 -11 7 -73 10 -73 3 0 -1 -8 -3 -18 -5 -9 -2 -15 0 -13 4 3 4
-13 7 -34 6 -21 0 -36 -3 -33 -7 7 -13 -12 -9 -26 5 -11 10 -12 9 -6 -3 8 -13
7 -13 -8 -1 -11 9 -17 10 -17 2 0 -6 -5 -11 -11 -11 -5 0 -8 4 -5 8 3 5 -1 9
-9 9 -8 0 -11 -5 -8 -11 4 -6 -1 -5 -10 3 -14 11 -17 11 -17 0 0 -9 -3 -10 -8
-4 -8 12 -47 14 -58 3 -4 -4 -13 -3 -21 3 -10 9 -13 8 -13 -1 0 -10 -4 -10
-16 1 -13 10 -17 10 -24 0 -6 -10 -9 -10 -15 -1 -6 9 -10 9 -16 -1 -6 -10 -9
-11 -9 -1 0 6 -5 12 -11 12 -5 0 -7 -5 -3 -11 4 -7 -1 -7 -16 1 -13 7 -20 8
-16 2 3 -6 2 -14 -4 -17 -6 -4 -9 -1 -8 6 3 15 -60 21 -68 7 -3 -5 -12 -4 -20
3 -10 8 -14 8 -14 0 0 -6 -5 -11 -11 -11 -5 0 -8 4 -5 8 3 5 -1 9 -9 9 -8 0
-11 -5 -8 -11 4 -6 -1 -5 -10 3 -14 11 -17 11 -17 0 0 -9 -3 -10 -8 -4 -10 15
-46 19 -37 5 6 -9 2 -9 -13 -1 -27 14 -35 14 -26 -1 5 -8 0 -7 -11 2 -10 8
-19 15 -20 15 -1 0 -10 -7 -20 -15 -11 -9 -16 -10 -11 -2 8 13 -15 17 -28 5
-10 -11 -37 -12 -30 -2 3 5 1 9 -5 9 -5 0 -13 -5 -16 -10 -5 -8 -11 -8 -20 0
-10 8 -15 8 -20 0 -5 -8 -11 -7 -22 1 -12 10 -16 10 -24 -2 -5 -8 -9 -9 -9 -2
0 12 -37 12 -57 0 -6 -4 -15 -3 -18 3 -5 8 -11 8 -20 0 -10 -8 -15 -8 -20 1
-6 8 -10 7 -16 -2 -5 -8 -9 -9 -9 -3 0 14 -100 14 -100 0 0 -6 -4 -5 -9 2 -9
14 -32 13 -43 -3 -5 -6 -8 -6 -8 1 0 6 -11 12 -25 12 -14 0 -25 -6 -25 -12 0
-7 -3 -8 -8 0 -9 13 -125 13 -134 0 -5 -7 -8 -7 -8 1 0 7 -7 10 -15 7 -9 -4
-15 0 -15 7 0 9 -3 10 -8 4 -10 -14 -404 -14 -414 0 -5 7 -8 7 -8 0 0 -5 -24
-10 -54 -10 -30 -1 -52 3 -49 8 3 5 -4 4 -16 -2 -16 -9 -21 -9 -21 1 0 8 -3 9
-8 3 -6 -9 -30 -11 -57 -5 -5 1 -14 2 -18 1 -39 -7 -86 -8 -82 -1 2 4 -13 4
-35 0 -27 -5 -40 -4 -40 4 0 7 -3 7 -8 1 -4 -5 -31 -10 -60 -10 -28 0 -52 5
-52 10 0 7 -3 7 -8 0 -4 -5 -20 -10 -37 -10 -16 0 -33 5 -37 10 -5 6 -8 5 -8
-4 0 -11 -3 -11 -15 -1 -12 10 -15 10 -15 0 0 -10 -3 -10 -15 0 -10 8 -15 9
-15 1 0 -7 -8 -8 -25 -1 -17 7 -25 6 -25 -1 0 -8 -5 -7 -15 1 -10 9 -15 9 -15
1 0 -6 -5 -11 -11 -11 -5 0 -7 5 -3 12 4 6 3 9 -2 5 -5 -3 -29 -6 -54 -8 -35
-2 -44 1 -42 12 2 11 0 11 -10 -1 -14 -17 -48 -15 -60 4 -5 7 -8 6 -8 -4 0
-13 -11 -15 -64 -10 -35 3 -62 2 -60 -2 3 -5 1 -8 -5 -8 -5 0 -12 6 -14 13 -4
8 -6 8 -6 -2 -1 -11 -5 -10 -16 5 -15 19 -15 19 -9 -1 6 -20 5 -20 -10 -1 -13
17 -16 17 -16 4 0 -14 -5 -15 -30 -8 -16 5 -30 6 -30 2 0 -4 -13 -7 -30 -7
-20 0 -30 5 -31 15 0 10 -3 8 -9 -5 -5 -11 -9 -15 -9 -10 -1 13 -61 13 -61 1
0 -6 -7 -1 -15 10 -12 14 -14 15 -9 2 4 -13 1 -15 -18 -11 -13 4 -26 11 -30
17 -5 7 -8 3 -8 -8 0 -19 -1 -19 -20 -1 -14 13 -19 14 -15 4 4 -11 -6 -14 -49
-14 -30 0 -52 3 -49 8 6 9 -1 9 -32 -3 -15 -6 -24 -6 -20 -1 3 5 1 12 -5 16
-5 3 -10 -2 -10 -11 0 -15 -2 -16 -17 -2 -18 16 -48 14 -38 -3 4 -5 -1 -6 -9
-3 -9 3 -13 10 -10 15 3 5 -2 6 -10 3 -9 -3 -14 -9 -12 -13 8 -12 -115 -3
-131 10 -14 12 -16 12 -8 0 6 -11 4 -13 -7 -8 -9 3 -21 0 -28 -6 -9 -9 -11 -9
-7 -1 4 7 1 14 -6 16 -17 7 -38 -2 -32 -13 4 -5 -1 -6 -9 -3 -9 3 -14 10 -11
14 7 11 -22 6 -32 -5 -5 -4 -1 -5 7 0 8 5 12 5 8 1 -9 -10 -128 -13 -121 -3 2
4 -2 8 -9 8 -7 1 -20 2 -28 3 -8 1 -20 -2 -27 -7 -6 -4 -14 -3 -18 3 -8 13
-25 13 -25 -1 0 -5 5 -7 12 -3 7 4 8 3 4 -4 -9 -15 -12 -15 -30 4 -9 8 -16 11
-16 5 0 -15 -27 -14 -33 2 -4 10 -6 10 -6 0 -1 -7 -13 -13 -27 -13 -14 0 -23
4 -20 9 4 5 -1 8 -10 7 -8 -1 -20 -9 -25 -17 -7 -11 -9 -10 -9 6 0 17 -1 18
-16 4 -17 -18 -68 -14 -57 5 4 6 0 5 -9 -2 -13 -10 -17 -10 -21 0 -4 10 -6 10
-6 1 -1 -7 -7 -13 -15 -13 -8 0 -17 6 -19 13 -4 10 -6 10 -6 0 -1 -7 -6 -13
-12 -13 -5 0 -7 6 -3 13 5 8 2 8 -9 -2 -9 -7 -17 -9 -17 -4 0 5 -7 10 -15 10
-8 0 -15 -5 -15 -10 0 -5 -8 -3 -17 4 -11 10 -14 10 -9 2 4 -7 2 -13 -3 -13
-6 0 -11 5 -11 10 0 6 -5 10 -11 10 -5 0 -7 -5 -3 -12 5 -7 3 -8 -7 -3 -19 12
-99 14 -99 3 0 -5 5 -6 12 -2 7 5 8 3 4 -5 -6 -9 -13 -8 -29 6 -11 10 -17 12
-13 6 4 -7 2 -13 -3 -13 -6 0 -11 5 -11 10 0 6 -5 10 -11 10 -5 0 -7 -6 -3
-12 5 -8 0 -7 -11 2 -10 8 -21 13 -24 12 -29 -17 -41 -21 -41 -14 0 5 -7 9
-15 9 -8 0 -15 -3 -15 -7 0 -4 -7 -7 -15 -7 -8 0 -12 4 -9 9 3 4 0 8 -6 8 -6
0 -13 -7 -16 -15z m-34 -55 c0 -5 -5 -10 -11 -10 -5 0 -7 5 -4 10 3 6 8 10 11
10 2 0 4 -4 4 -10z m1533 -1145 c-3 -9 -8 -14 -10 -11 -3 3 -2 9 2 15 9 16 15
13 8 -4z"/>
<path d="M3970 4569 c0 -5 5 -7 10 -4 6 3 10 8 10 11 0 2 -4 4 -10 4 -5 0 -10
-5 -10 -11z"/>
<path d="M1356 3359 c-8 -10 -12 -20 -9 -23 4 -3 0 -6 -7 -6 -7 0 -11 -3 -7
-6 3 -4 -1 -13 -9 -21 -8 -8 -12 -19 -8 -24 3 -5 0 -8 -8 -7 -7 2 -13 -5 -13
-14 0 -9 -10 -26 -23 -38 -12 -11 -22 -27 -22 -35 0 -8 -7 -15 -17 -15 -9 0
-13 -3 -10 -7 4 -3 0 -15 -10 -25 -9 -10 -13 -18 -9 -18 4 0 1 -6 -6 -14 -7
-8 -16 -12 -21 -9 -4 2 -7 1 -6 -4 5 -18 -14 -62 -25 -60 -6 1 -10 -6 -8 -17
2 -11 -1 -15 -7 -11 -6 3 -11 -1 -11 -9 0 -9 -5 -16 -11 -16 -5 0 -7 -4 -4
-10 3 -5 2 -10 -3 -10 -5 0 -12 -9 -15 -21 -4 -13 -10 -18 -18 -13 -8 4 -10 3
-5 -4 4 -7 -2 -21 -13 -33 -11 -12 -18 -25 -16 -29 3 -5 -2 -10 -10 -14 -8 -3
-15 -12 -15 -21 0 -8 -5 -15 -11 -15 -5 0 -7 -4 -4 -10 3 -5 -2 -10 -12 -11
-11 0 -13 -3 -5 -6 8 -3 5 -11 -10 -25 -13 -11 -16 -17 -8 -13 11 5 10 2 -2
-7 -9 -8 -18 -20 -20 -27 -2 -8 -13 -24 -26 -37 -13 -13 -20 -29 -17 -34 3 -6
-1 -10 -10 -10 -9 0 -13 -4 -10 -10 3 -5 2 -10 -4 -10 -6 0 -13 -11 -17 -24
-3 -14 -14 -32 -25 -42 -10 -9 -19 -23 -19 -31 0 -7 -4 -13 -8 -13 -5 0 -15
-12 -23 -27 -8 -16 -17 -30 -21 -33 -3 -3 -8 -12 -10 -20 -5 -21 -22 -39 -32
-32 -5 3 -6 0 -2 -6 4 -6 -2 -20 -14 -32 -11 -11 -17 -20 -12 -20 4 0 0 -6 -8
-13 -8 -7 -16 -18 -18 -26 -1 -7 -14 -28 -27 -46 -14 -17 -25 -38 -25 -45 0
-7 -3 -10 -6 -7 -4 4 -16 -10 -27 -31 -11 -20 -27 -43 -36 -50 -12 -10 -12
-12 -1 -6 8 4 5 -4 -7 -18 -13 -13 -23 -30 -23 -37 0 -7 -6 -11 -14 -8 -10 4
-13 1 -10 -8 5 -13 -29 -71 -51 -87 -6 -5 -6 -8 -1 -8 6 0 1 -7 -10 -15 -10
-8 -15 -15 -10 -15 6 0 1 -7 -10 -15 -10 -8 -15 -15 -11 -15 4 0 3 -6 -2 -12
-51 -62 -64 -81 -51 -74 8 4 6 0 -5 -9 -11 -9 -19 -21 -17 -26 1 -5 -2 -9 -8
-9 -5 0 -10 -9 -10 -20 0 -14 -5 -18 -17 -13 -9 4 -14 2 -11 -3 3 -5 -3 -22
-13 -39 -10 -16 -23 -40 -29 -53 -6 -14 -15 -20 -22 -16 -7 4 -8 3 -4 -4 4 -7
-2 -22 -13 -34 -12 -12 -21 -28 -21 -35 0 -7 -5 -13 -11 -13 -5 0 -7 -5 -3
-12 5 -8 1 -9 -12 -4 -14 5 -16 4 -8 -4 9 -9 4 -19 -17 -42 -15 -17 -26 -35
-23 -40 3 -4 -3 -8 -13 -8 -14 0 -15 -2 -4 -9 11 -7 9 -11 -8 -20 -12 -7 -19
-16 -16 -22 4 -5 1 -9 -5 -9 -7 0 -10 -7 -7 -14 4 -9 1 -13 -6 -10 -7 2 -13
-4 -14 -16 l-2 -20 6369 0 c3503 0 6371 4 6374 8 3 5 -4 19 -15 30 -11 12 -17
22 -13 22 3 0 1 6 -5 13 -6 8 -8 17 -4 21 4 4 0 4 -10 0 -12 -4 -16 -2 -12 8
3 7 -4 23 -15 35 -11 12 -20 29 -20 38 0 8 -4 15 -10 15 -5 0 -10 7 -10 15 0
9 -7 18 -15 21 -8 4 -13 10 -10 14 3 5 -1 15 -9 23 -8 8 -12 17 -9 21 4 3 1 6
-5 6 -7 0 -12 6 -12 13 0 7 -9 23 -19 34 -11 12 -18 23 -15 26 2 2 -2 10 -11
17 -8 7 -15 19 -15 27 0 7 -9 23 -20 35 -11 12 -20 28 -20 35 0 7 -4 13 -9 13
-5 0 -14 14 -21 30 -7 17 -17 30 -22 30 -5 0 -6 5 -3 10 3 6 1 10 -4 10 -6 0
-10 3 -10 8 3 19 -2 33 -11 27 -6 -3 -7 1 -4 9 4 11 0 16 -11 16 -9 0 -14 4
-11 9 3 5 -2 19 -12 32 -31 43 -52 86 -44 93 4 4 2 6 -3 4 -6 -2 -10 -1 -10 2
0 3 -10 16 -22 30 -21 22 -28 40 -24 63 1 5 -3 6 -9 2 -5 -3 -10 1 -10 9 0 9
-4 16 -10 16 -5 0 -10 7 -10 15 0 8 -5 15 -11 15 -6 0 -9 7 -5 15 3 8 1 15 -4
15 -10 0 -43 56 -45 75 -1 6 -7 9 -14 7 -7 -1 -10 2 -7 7 4 5 2 12 -4 16 -6 4
-8 11 -5 16 4 5 -1 9 -10 9 -9 0 -14 4 -10 9 3 5 0 15 -7 23 -7 7 -14 19 -16
26 -1 7 -11 23 -22 35 -11 11 -20 27 -20 35 0 7 -10 23 -22 34 -13 11 -16 16
-8 12 13 -7 13 -6 0 12 -8 10 -18 21 -22 24 -3 3 -8 12 -10 20 -2 8 -11 23
-21 34 -10 11 -15 26 -13 33 3 7 0 12 -6 10 -7 -1 -12 4 -13 11 0 8 -7 19 -16
25 -9 7 -15 20 -13 30 1 9 -2 15 -7 11 -8 -5 -14 18 -10 40 1 5 -5 3 -14 -4
-13 -11 -15 -10 -10 2 4 9 -1 22 -9 31 -8 8 -12 17 -9 21 4 3 1 6 -5 6 -7 0
-12 7 -12 15 0 8 -5 15 -11 15 -5 0 -7 5 -4 10 3 6 2 10 -4 10 -10 0 -27 39
-23 53 1 5 -2 6 -8 2 -5 -3 -10 1 -10 9 0 9 -5 16 -11 16 -5 0 -7 5 -4 10 3 6
1 10 -6 10 -7 0 -10 3 -6 6 3 4 -1 13 -9 21 -8 8 -12 19 -9 24 4 5 -2 9 -11 9
-10 0 -14 3 -11 7 4 3 -3 18 -15 31 -13 14 -17 22 -9 17 14 -8 -26 54 -43 66
-5 4 -5 12 -1 19 5 9 4 11 -3 6 -11 -6 -16 6 -13 27 0 4 -6 7 -15 7 -8 0 -13
4 -9 9 3 5 1 12 -4 16 -6 3 -8 12 -4 21 3 8 2 14 -3 12 -5 -2 -10 1 -11 6 0 5
-8 13 -17 18 -9 5 -13 15 -9 25 4 11 3 14 -5 9 -7 -4 -12 -1 -12 6 0 12 -98
14 -573 14 -543 -1 -574 -2 -569 -18 2 -10 12 -18 21 -18 14 0 14 -2 1 -10 -9
-6 -10 -10 -3 -10 12 0 29 -37 25 -53 -1 -5 2 -6 8 -2 5 3 10 -1 10 -9 0 -9 5
-16 11 -16 5 0 7 -4 4 -10 -3 -5 -1 -10 5 -10 6 0 8 -4 5 -10 -3 -5 -1 -10 4
-10 6 0 11 -6 11 -14 0 -7 10 -21 23 -30 12 -9 16 -14 10 -11 -7 3 -13 1 -13
-4 0 -6 5 -11 10 -11 6 0 10 -6 10 -13 0 -7 9 -23 20 -35 12 -12 17 -22 13
-22 -4 0 1 -7 11 -15 14 -11 16 -15 5 -15 -10 -1 -9 -3 4 -11 9 -6 14 -15 11
-21 -4 -6 -2 -8 4 -4 6 3 13 2 17 -4 3 -5 0 -10 -7 -10 -9 -1 -7 -5 5 -14 9
-7 17 -21 17 -30 0 -10 5 -14 10 -11 6 3 10 0 10 -9 0 -8 6 -17 13 -19 9 -4 9
-6 -2 -6 -8 -1 -5 -9 10 -22 13 -11 17 -17 9 -13 -8 4 -5 -3 8 -15 12 -12 22
-28 22 -36 0 -8 3 -15 8 -15 13 0 30 -48 21 -62 -7 -10 -9 -10 -10 2 -1 8 -1
19 0 23 1 5 -3 6 -8 3 -13 -8 -7 -35 18 -84 11 -22 17 -42 14 -46 -4 -3 1 -6
9 -6 11 0 14 -6 11 -20 -3 -11 -1 -20 4 -20 11 0 45 -68 39 -78 -6 -10 -8892
-9 -8902 1 -4 4 -2 7 5 7 7 0 9 5 6 10 -4 6 -1 9 7 8 8 -2 14 8 15 27 3 64 2
62 13 45 8 -13 10 -12 10 4 0 20 0 20 15 0 9 -12 14 -14 15 -6 0 7 5 10 12 6
7 -4 8 -3 4 5 -4 6 0 14 8 17 9 3 13 10 10 15 -3 5 0 9 7 9 7 0 10 3 6 6 -3 4
4 15 16 26 12 11 15 17 7 13 -10 -4 -9 -2 2 8 10 8 15 17 11 20 -3 4 -1 7 5 7
6 0 19 16 28 35 9 19 21 35 26 35 5 0 7 4 4 9 -3 5 1 12 10 15 8 3 13 10 10
15 -3 5 1 12 10 15 8 3 13 10 10 15 -3 5 1 12 10 15 8 3 13 10 10 15 -3 5 1
12 10 15 9 3 14 13 11 20 -3 8 1 17 9 20 9 3 12 11 8 17 -4 7 -3 10 2 7 5 -3
15 0 22 8 7 8 10 14 6 14 -3 0 6 16 20 35 15 19 24 40 21 45 -4 6 1 7 12 3 10
-3 15 -2 10 2 -4 5 0 17 10 27 9 10 13 18 10 18 -8 0 16 31 51 68 20 20 21 24
5 18 -15 -6 -15 -4 3 13 12 10 32 37 45 58 12 21 29 42 36 46 7 4 13 16 13 25
0 16 -38 17 -570 18 -524 0 -570 -2 -584 -17z"/>
<path d="M7435 3360 c3 -5 8 -10 11 -10 2 0 4 5 4 10 0 6 -5 10 -11 10 -5 0
-7 -4 -4 -10z"/>
<path d="M7555 3360 c3 -5 8 -10 11 -10 2 0 4 5 4 10 0 6 -5 10 -11 10 -5 0
-7 -4 -4 -10z"/>
<path d="M8786 3358 c3 -5 10 -6 15 -3 13 9 11 12 -6 12 -8 0 -12 -4 -9 -9z"/>
</g>
</svg>
