<svg id="Layer_1" data-name="Layer 1" xmlns="http://www.w3.org/2000/svg" xmlns:xlink="http://www.w3.org/1999/xlink" viewBox="0 0 187.95 209.9"><defs><style>.cls-1,.cls-2{fill-rule:evenodd;}.cls-1{fill:url(#linear-gradient);}.cls-2{fill:url(#linear-gradient-2);}</style><linearGradient id="linear-gradient" x1="805.57" y1="524.38" x2="790.11" y2="539.84" gradientTransform="matrix(-1, 0, 0, 1, 1761.76, 0)" gradientUnits="userSpaceOnUse"><stop offset="0" stop-color="#d91d46"/><stop offset="1" stop-color="#c01f3e"/></linearGradient><linearGradient id="linear-gradient-2" x1="961.98" y1="465.36" x2="791.01" y2="636.33" xlink:href="#linear-gradient"/></defs><title>k new logo custom</title><path class="cls-1" d="M953,532.11a10.94,10.94,0,1,0,10.93-10.93A10.93,10.93,0,0,0,953,532.11" transform="translate(-786.91 -442.23)"/><path class="cls-2" d="M797.74,591.36c14.56-15.15,29.5-29.94,45.18-45.8-12.36-12.21-24.31-23.89-36.11-35.7-15.11-15.12-15.69-35.9-1.55-50s34.77-13.47,50.08,1.63c14.78,14.58,29.37,29.36,44.09,44,1.71,1.71,3.65,3.19,6.8,5.91,0-13.91,0-28.72,0-33.17.19-21.28,14.63-36.28,34.62-36,19.83.26,33.39,14.91,33.46,36.2v15a10.64,10.64,0,0,1-21.27,0V475.8h0c-.1-7.26-4.72-11.6-12.14-12.14-7-.51-13.21,4.41-13.43,11.73-.25,8.27-.31,41.86-.29,56.66L962.87,567a39.25,39.25,0,0,1,11.78,28v19a51.78,51.78,0,0,1-1.5,13.68C968.63,644.12,953.2,654,936,651.84s-29.44-15.29-29.66-32.71c-.3-22.77.17-45.56,0-68.34,0-3.5-.6-8.06-2.8-10.31q-32.62-33.43-66-66.11c-5.24-5.13-11.65-4.52-17.09.54-5.28,4.91-5.42,12-.55,17.77,1.31,1.54,2.81,2.9,4.24,4.33,16.93,16.92,34,33.69,50.74,50.81,17.44,17.85,18.13,44.29,1.67,61.53q-15.84,16.57-32.45,32.39c-11.55,11-30.09,11.89-43,2.49-17.43-12.7-19.11-36.49-3.36-52.87M928,620.7c.34,6.95,5.8,10.62,13.8,10,7.39-.53,11.34-5.53,11.45-12.84.37-25.17-6.75-39.4-25.56-53.37,0,19.59-.59,37.91.31,56.16m-115.9,4.71a12.19,12.19,0,0,0,17.82.4c10.86-10.33,21.62-20.82,31.63-31.95,8.78-9.75,7.37-21-3-31.86-16,15.65-31.85,30.71-47.13,46.31-5.09,5.2-4.46,11.65.65,17.1" transform="translate(-786.91 -442.23)"/></svg>